<svg width="126" height="42" viewBox="0 0 126 42" xmlns="http://www.w3.org/2000/svg">
<path d="M13.1569 31.2846H5.27234L3.38738 36.8983H0.03125L7.50209 16.1692H10.9732L18.444 36.8983H15.0419L13.1569 31.2846ZM6.07689 28.7079H12.3294L9.24912 19.6202H9.18016L6.07689 28.7079Z" />
<path d="M34.627 29.3523C34.627 34.0457 32.1214 37.0596 28.3285 37.0596C26.1677 37.0596 24.4667 36.0933 23.5702 34.4138H23.5012V41.914H20.3979V21.7831H23.4093V24.2909H23.4553C24.3288 22.6804 26.1448 21.6221 28.2826 21.6221C32.0984 21.6221 34.627 24.659 34.627 29.3523ZM31.4318 29.3523C31.4318 26.2924 29.8457 24.2909 27.432 24.2909C25.0644 24.2909 23.4782 26.3385 23.4782 29.3523C23.4782 32.3662 25.0644 34.4368 27.432 34.4368C29.8457 34.4368 31.4318 32.4352 31.4318 29.3523Z" />
<path d="M51.2467 29.3523C51.2467 34.0457 48.7411 37.0596 44.9482 37.0596C42.7874 37.0596 41.0863 36.0933 40.1898 34.4138H40.1209V41.914H37.0176V21.7831H40.0289V24.2909H40.0749C40.9484 22.6574 42.7644 21.6221 44.8792 21.6221C48.7181 21.6221 51.2467 24.659 51.2467 29.3523ZM48.0514 29.3523C48.0514 26.2924 46.4653 24.2909 44.0517 24.2909C41.684 24.2909 40.0979 26.3385 40.0979 29.3523C40.0979 32.3662 41.684 34.4368 44.0517 34.4368C46.4653 34.4368 48.0514 32.4352 48.0514 29.3523Z" />
<path d="M62.2348 31.1237C62.4646 33.1713 64.4645 34.5287 67.177 34.5287C69.7976 34.5287 71.6595 33.1713 71.6595 31.3308C71.6595 29.7203 70.5332 28.754 67.8436 28.0868L65.1541 27.4426C61.3613 26.5224 59.5912 24.7508 59.5912 21.852C59.5912 18.2629 62.7175 15.8242 67.1311 15.8242C71.5216 15.8242 74.5099 18.2859 74.6019 21.852H71.4756C71.2917 19.7814 69.5907 18.539 67.0851 18.539C64.5795 18.539 62.8784 19.8044 62.8784 21.6449C62.8784 23.1174 63.9818 23.9686 66.6483 24.6358L68.924 25.188C73.1767 26.2003 74.9467 27.9028 74.9467 30.9397C74.9467 34.8278 71.8664 37.2435 66.9472 37.2435C62.3497 37.2435 59.2464 34.8738 59.0396 31.1237H62.2348Z" />
<path d="M81.6358 18.217V21.8061H84.5092V24.2448H81.6358V32.5732C81.6358 33.8616 82.2104 34.4598 83.4747 34.4598C83.8196 34.4598 84.1644 34.4368 84.4862 34.3908V36.8295C83.9115 36.9445 83.3368 36.9905 82.7621 36.9675C79.7048 36.9675 78.5095 35.8172 78.5095 32.8953V24.2448H76.3027V21.7831H78.5095V18.217H81.6358Z" />
<path d="M86.187 29.3524C86.187 24.59 88.9915 21.5991 93.359 21.5991C97.7266 21.5991 100.531 24.59 100.531 29.3524C100.531 34.1148 97.7496 37.1057 93.359 37.1057C88.9685 37.1057 86.187 34.1148 86.187 29.3524ZM97.3588 29.3524C97.3588 26.0854 95.8646 24.1529 93.359 24.1529C90.8534 24.1529 89.3593 26.0854 89.3593 29.3524C89.3593 32.6194 90.8534 34.5519 93.359 34.5519C95.8646 34.5519 97.3588 32.6194 97.3588 29.3524Z" />
<path d="M103.06 21.7831H106.025V24.3599H106.094C106.577 22.6574 107.956 21.6221 109.726 21.6221C110.094 21.6221 110.438 21.6681 110.783 21.7371V24.636C110.324 24.4979 109.864 24.4289 109.381 24.4519C107.381 24.4519 106.14 25.8093 106.14 27.9259V36.8985H103.037V21.7831H103.06Z" />
<path d="M125.081 32.4581C124.667 35.1959 122.001 37.0825 118.576 37.0825C114.185 37.0825 111.45 34.1376 111.45 29.3982C111.45 24.6588 114.185 21.5759 118.438 21.5759C122.621 21.5759 125.242 24.4518 125.242 29.0301V30.0884H114.576V30.2725C114.576 32.8492 116.208 34.5517 118.645 34.5517C120.369 34.5517 121.725 33.7235 122.139 32.4351L125.081 32.4581ZM114.599 27.9488H122.162C122.093 25.6251 120.599 24.1067 118.461 24.1067C116.323 24.1067 114.76 25.6711 114.599 27.9488Z" />
<path d="M5.6861 0.547852C8.65145 0.547852 10.3755 2.36538 10.3755 5.4943C10.3755 8.66923 8.65145 10.5098 5.6861 10.5098H2.1001V0.547852H5.6861ZM3.64024 9.10636H5.5252C7.61703 9.10636 8.81236 7.81798 8.81236 5.51731C8.81236 3.26265 7.59405 1.95126 5.5252 1.95126H3.64024V9.10636Z" />
<path d="M12.1226 6.75978C12.1226 4.34407 13.4788 2.84863 15.6626 2.84863C17.8464 2.84863 19.2026 4.32106 19.2026 6.75978C19.2026 9.19849 17.8464 10.6709 15.6626 10.6709C13.4788 10.6709 12.1226 9.19849 12.1226 6.75978ZM17.6855 6.75978C17.6855 5.1263 16.9499 4.18302 15.6626 4.18302C14.3753 4.18302 13.6397 5.1263 13.6397 6.75978C13.6397 8.39326 14.3753 9.33653 15.6626 9.33653C16.9499 9.33653 17.6855 8.39326 17.6855 6.75978Z" />
<path d="M28.6276 10.5098H27.0874L25.5243 4.96515H25.4094L23.8692 10.5098H22.3521L20.2832 2.98657H21.7774L23.1336 8.73826H23.2486L24.7887 2.98657H26.2139L27.754 8.73826H27.869L29.2022 2.98657H30.6964L28.6276 10.5098Z" />
<path d="M32.4429 2.98667H33.8681V4.18302H33.983C34.3508 3.35478 35.0864 2.84863 36.2358 2.84863C37.9139 2.84863 38.8334 3.86093 38.8334 5.65545V10.5329H37.3392V6.02356C37.3392 4.82721 36.8105 4.20603 35.7071 4.20603C34.6037 4.20603 33.9141 4.94225 33.9141 6.11559V10.5099H32.4199V2.98667H32.4429Z" />
<path d="M41.1782 0.0646973H42.6724V10.5098H41.1782V0.0646973Z" />
<path d="M44.7183 6.75978C44.7183 4.34407 46.0745 2.84863 48.2583 2.84863C50.4421 2.84863 51.7983 4.32106 51.7983 6.75978C51.7983 9.19849 50.4421 10.6709 48.2583 10.6709C46.0745 10.6709 44.7183 9.19849 44.7183 6.75978ZM50.2812 6.75978C50.2812 5.1263 49.5456 4.18302 48.2583 4.18302C46.971 4.18302 46.2354 5.1263 46.2354 6.75978C46.2354 8.39326 46.948 9.33653 48.2583 9.33653C49.5686 9.33653 50.2812 8.39326 50.2812 6.75978Z" />
<path d="M53.3613 8.39326C53.3613 7.03586 54.3728 6.25363 56.1658 6.1386L58.1886 6.02356V5.37937C58.1886 4.59715 57.6599 4.13701 56.6485 4.13701C55.821 4.13701 55.2463 4.4361 55.0854 4.96525H53.6602C53.8211 3.67688 55.0164 2.84863 56.7175 2.84863C58.6024 2.84863 59.6598 3.79191 59.6598 5.37937V10.5099H58.2346V9.45157H58.1197C57.6599 10.2108 56.8554 10.6249 55.8669 10.6249C54.4417 10.6479 53.3613 9.77366 53.3613 8.39326ZM58.1886 7.74907V7.12789L56.3497 7.24292C55.3152 7.31194 54.8555 7.65704 54.8555 8.32424C54.8555 8.99143 55.4302 9.40555 56.2577 9.40555C57.3841 9.38255 58.2116 8.69235 58.1886 7.74907Z" />
<path d="M61.6367 6.75972C61.6367 4.39002 62.855 2.87158 64.763 2.87158C65.7974 2.87158 66.6479 3.35472 67.0617 4.18296H67.1766V0.041748H68.6708V10.4868H67.2456V9.29046H67.1307C66.6479 10.1417 65.7284 10.6479 64.763 10.6018C62.8321 10.6479 61.6367 9.12941 61.6367 6.75972ZM63.1539 6.75972C63.1539 8.34718 63.9124 9.31347 65.1538 9.31347C66.3951 9.31347 67.1766 8.34718 67.1766 6.75972C67.1766 5.17225 66.3951 4.20597 65.1538 4.20597C63.9124 4.20597 63.1539 5.17225 63.1539 6.75972Z" />
<path d="M74.7856 6.75978C74.7856 4.34407 76.1419 2.84863 78.3257 2.84863C80.5095 2.84863 81.8657 4.32106 81.8657 6.75978C81.8657 9.19849 80.5325 10.6709 78.3257 10.6709C76.1189 10.6709 74.7856 9.19849 74.7856 6.75978ZM80.3486 6.75978C80.3486 5.1263 79.613 4.18302 78.3257 4.18302C77.0384 4.18302 76.3028 5.1263 76.3028 6.75978C76.3028 8.39326 77.0384 9.33653 78.3257 9.33653C79.613 9.33653 80.3486 8.39326 80.3486 6.75978Z" />
<path d="M83.8652 2.98667H85.2904V4.18302H85.4054C85.7732 3.35478 86.5088 2.84863 87.6581 2.84863C89.3362 2.84863 90.2557 3.86093 90.2557 5.65545V10.5329H88.7615V6.02356C88.7615 4.82721 88.2328 4.20603 87.1524 4.20603C86.072 4.20603 85.3594 4.94225 85.3594 6.11559V10.5099H83.8652V2.98667Z" />
<path d="M98.6231 1.12305V3.03261H100.255V4.27497H98.6231V8.1401C98.6231 8.92233 98.9449 9.26744 99.6805 9.26744C99.8644 9.26744 100.048 9.24443 100.255 9.22142V10.4638C99.9793 10.5098 99.7264 10.5328 99.4506 10.5328C97.7955 10.5328 97.1519 9.95764 97.1519 8.50821V4.27497H95.9565V3.03261H97.1519V1.12305H98.6231Z" />
<path d="M102.278 0.0646973H103.75V4.20591H103.864C104.232 3.35466 105.014 2.87152 106.163 2.87152C107.772 2.87152 108.738 3.88382 108.738 5.67834V10.5328H107.244V6.02344C107.244 4.82709 106.692 4.20591 105.634 4.20591C104.416 4.20591 103.75 4.96513 103.75 6.11547V10.5098H102.255V0.0646973H102.278Z" />
<path d="M117.381 8.48529C117.036 9.81968 115.841 10.6479 114.117 10.6479C111.956 10.6479 110.646 9.17549 110.646 6.75978C110.646 4.34407 112.002 2.84863 114.117 2.84863C116.231 2.84863 117.473 4.27505 117.473 6.64475V7.15089H112.163V7.24292C112.209 8.55431 112.967 9.40556 114.163 9.40556C115.059 9.40556 115.68 9.08346 115.956 8.48529H117.381ZM112.163 6.06958H115.956C115.91 4.89623 115.197 4.114 114.117 4.114C113.036 4.114 112.255 4.89623 112.163 6.06958Z" />
</svg>
