<svg width="32" height="38" viewBox="0 0 32 38" fill="none" xmlns="http://www.w3.org/2000/svg">
<path d="M26.2847 20.1832C26.2387 15.3978 30.1925 13.0741 30.3764 12.9821C28.1466 9.71513 24.6755 9.278 23.4572 9.23199C20.5379 8.9329 17.7104 10.9805 16.2392 10.9805C14.7681 10.9805 12.4464 9.278 9.98672 9.32402C6.7915 9.37003 3.82613 11.1876 2.21703 14.0404C-1.1391 19.8611 1.3665 28.3966 4.58471 33.113C6.19384 35.4137 8.07879 37.9904 10.5384 37.8984C12.9521 37.8064 13.8486 36.3569 16.745 36.3569C19.6413 36.3569 20.4689 37.8984 22.9745 37.8294C25.5491 37.7834 27.1812 35.5287 28.7443 33.205C29.8936 31.5715 30.7901 29.754 31.3878 27.8444C31.2959 27.7984 26.3306 25.9119 26.2847 20.1832Z" fill="white"/>
<path d="M21.5496 6.14916C22.8369 4.53869 23.7334 2.33004 23.4805 0.0983887C21.6186 0.190416 19.2739 1.38677 17.9176 2.97423C16.7223 4.37764 15.6649 6.65531 15.9407 8.81794C18.0325 8.95599 20.1933 7.73663 21.5496 6.14916Z" fill="white"/>
</svg>
