<svg width="25" height="24" viewBox="0 0 25 24" fill="none" xmlns="http://www.w3.org/2000/svg">
<g clip-path="url(#clip0_1_2)">
<path d="M10.9766 1.01718C10.5266 1.11093 10.0437 1.32187 9.65937 1.58437C9.41562 1.75312 8.39375 2.79843 5.45468 5.90625C3.31718 8.16093 1.54062 10.0734 1.50312 10.1578C1.44687 10.2891 1.4375 11.1047 1.44218 15.6656C1.44218 20.5734 1.45156 21.0516 1.52187 21.3328C1.7375 22.1437 2.46875 22.8375 3.30312 23.0109C3.65937 23.0859 21.3453 23.0859 21.6969 23.0109C22.5875 22.8234 23.3281 22.0828 23.5109 21.1969C23.5859 20.8453 23.5859 3.15468 23.5109 2.80312C23.3281 1.92656 22.5734 1.17187 21.6969 0.989059C21.5234 0.951559 19.9109 0.937496 16.3766 0.942184C12.0594 0.946871 11.2578 0.956246 10.9766 1.01718ZM21.7344 2.175C21.9641 2.29687 22.1937 2.52187 22.3109 2.74218C22.4141 2.92968 22.4141 2.94375 22.4281 6.38437L22.4375 9.84375H12.8937C6.90781 9.84375 3.35937 9.825 3.36875 9.80156C3.40156 9.69843 10.0766 2.67656 10.2687 2.53593C10.5266 2.35312 10.85 2.20781 11.1641 2.12812C11.3469 2.08125 12.5609 2.07187 16.4844 2.07656C21.3453 2.08593 21.5797 2.09062 21.7344 2.175ZM20.3844 12.7406C20.5156 12.8719 20.5391 12.9234 20.5391 13.125C20.5391 13.3266 20.5156 13.3781 20.3844 13.5094L20.2344 13.6641H18.5H16.7656L16.6156 13.5094C16.4844 13.3781 16.4609 13.3266 16.4609 13.1297C16.4609 12.8859 16.5828 12.6937 16.7891 12.6047C16.8406 12.5859 17.6375 12.5719 18.5562 12.5766L20.2344 12.5859L20.3844 12.7406Z" fill="#2D2929"/>
</g>
<defs>
<clipPath id="clip0_1_2">
<rect width="25" height="24" fill="white"/>
</clipPath>
</defs>
</svg>
