<svg width="25" height="24" viewBox="0 0 25 24" fill="none" xmlns="http://www.w3.org/2000/svg">
<g clip-path="url(#clip0_1_2)">
<path d="M17.0938 0.881249C16.7188 1.35937 16.0906 2.16562 15.6969 2.66719C14.4922 4.20937 14 5.025 13.7609 5.88281C13.6109 6.40781 13.6109 7.21875 13.7609 7.77656C14.2578 9.66562 15.8703 10.9219 17.7969 10.9219C18.8656 10.9219 19.8125 10.5516 20.5953 9.825C21.1672 9.29531 21.5797 8.62969 21.7906 7.88906C21.8844 7.57969 21.8984 7.41562 21.8984 6.79687C21.8938 6.13594 21.8844 6.0375 21.7672 5.69531C21.4672 4.79531 21.0219 4.12031 19.2266 1.82812C18.4859 0.885936 17.8578 0.0937485 17.8297 0.0656235C17.7875 0.023436 17.6094 0.220311 17.0938 0.881249Z" fill="#2D2929"/>
<path d="M8.375 6.26719C6.86562 8.18907 5.44531 10.0313 5.22031 10.3547C4.16094 11.8594 3.57969 13.0078 3.29375 14.1375C3.12969 14.7938 3.07812 15.2391 3.07812 16.0031C3.07812 19.2281 5.09844 22.1953 8.11719 23.4047C10.3391 24.2953 12.7062 24.1781 14.8484 23.0813C17.6047 21.6656 19.3203 18.7219 19.1891 15.6328C19.1469 14.625 18.9172 13.7016 18.4766 12.7688L18.2797 12.3422L17.5812 12.3141C16.7797 12.2859 16.2594 12.1734 15.5516 11.8688C14.6844 11.4938 13.7562 10.7203 13.2125 9.92344C12.4812 8.85938 12.125 7.5 12.2609 6.3C12.3172 5.82657 12.4625 5.22188 12.6078 4.87969L12.6781 4.72032L11.9937 3.84844C11.6234 3.37032 11.2719 2.92969 11.2156 2.87344L11.1172 2.77032L8.375 6.26719Z" fill="#2D2929"/>
</g>
<defs>
<clipPath id="clip0_1_2">
<rect width="25" height="24" fill="white"/>
</clipPath>
</defs>
</svg>
