<svg width="130" height="42" viewBox="0 0 130 42" xmlns="http://www.w3.org/2000/svg">
<path d="M9.9126 5.22803C9.9126 6.49678 9.52397 7.49365 8.76958 8.24131C7.90089 9.1249 6.78073 9.57803 5.40911 9.57803C2.80303 9.60068 0.699869 7.53896 0.677009 4.95615C0.677009 4.91084 0.677009 4.88818 0.677009 4.84287C0.631288 2.26006 2.71159 0.153027 5.31767 0.130371H5.43197C6.07206 0.130371 6.71214 0.266309 7.30651 0.515527C7.85516 0.74209 8.33523 1.08193 8.72386 1.53506L7.92375 2.32803C7.30652 1.60303 6.48354 1.26318 5.43197 1.26318C3.48884 1.26318 1.88861 2.80381 1.88861 4.75225V4.88818C1.82003 6.81396 3.32881 8.44521 5.27194 8.51318H5.43197C6.3921 8.53584 7.30652 8.17334 7.96947 7.49365C8.42668 6.99522 8.701 6.33818 8.74672 5.6585H5.43197V4.571H9.86688C9.88974 4.7749 9.9126 5.00146 9.9126 5.22803Z" />
<path fill-rule="evenodd" clip-rule="evenodd" d="M5.31757 0.0303955L5.43187 0.0303993C6.08593 0.0303993 6.73904 0.169256 7.34485 0.423235C7.90729 0.65554 8.4004 1.00446 8.79967 1.46999L8.86024 1.54061L7.91743 2.47501L7.84751 2.39288C7.25221 1.69364 6.45899 1.36321 5.43187 1.36321C3.54185 1.36321 1.98851 2.86116 1.98851 4.75227V4.89177C1.92192 6.76187 3.38664 8.34627 5.27361 8.41321H5.43423C6.367 8.43522 7.25387 8.0834 7.89671 7.42496C8.31353 6.97005 8.57336 6.3775 8.63771 5.75852H5.33187V4.47102H9.95619L9.96616 4.55988C9.98905 4.76406 10.0125 4.99544 10.0125 5.22806C10.0125 6.51872 9.61635 7.54258 8.84033 8.31191C7.95132 9.21593 6.80495 9.67796 5.40944 9.67806C2.7488 9.70095 0.600267 7.59541 0.576915 4.95707L0.576912 4.84422C0.576917 4.84452 0.576906 4.84497 0.576912 4.84527L0.676912 4.8429H0.576912V4.84422C0.530681 2.20512 2.65733 0.0535226 5.31757 0.0303955ZM5.31801 0.230399C2.76658 0.252811 0.732181 2.31515 0.776896 4.84113L0.776927 4.8429L0.776912 4.95565C0.799514 7.48258 2.85697 9.50024 5.40814 9.47806C6.75544 9.47806 7.84996 9.03399 8.69818 8.17123L8.69909 8.17031C9.43156 7.44438 9.8125 6.47463 9.8125 5.22806C9.8125 5.03924 9.79617 4.84951 9.77715 4.67102H5.53187V5.55852H8.85358L8.8464 5.66524C8.7992 6.36682 8.51615 7.04554 8.04307 7.56128L8.04099 7.56354C7.35829 8.26348 6.41724 8.63618 5.43069 8.61321H5.26835C3.27049 8.54333 1.71897 6.86655 1.78851 4.88645V4.75227C1.78851 2.74651 3.43563 1.16321 5.43187 1.16321C6.46847 1.16321 7.29782 1.48734 7.92866 2.1823L8.58643 1.5304C8.21977 1.12446 7.77438 0.81699 7.26825 0.607985C6.68538 0.36359 6.0579 0.230399 5.43187 0.230399H5.31801Z" />
<path d="M16.931 1.46709H12.7704V4.34443H16.5195V5.43193H12.7704V8.30928H16.931V9.41943H11.6045V0.356934H16.931V1.46709Z" />
<path fill-rule="evenodd" clip-rule="evenodd" d="M11.5044 0.256958H17.0309V1.56711H12.8703V4.24446H16.6194V5.53196H12.8703V8.2093H17.0309V9.51946H11.5044V0.256958ZM11.7044 0.456958V9.31946H16.8309V8.4093H12.6703V5.33196H16.4194V4.44446H12.6703V1.36711H16.8309V0.456958H11.7044Z" />
<path d="M21.8688 9.39678H20.7029V1.46709H18.1426V0.356934H24.4063V1.46709H21.846V9.39678H21.8688Z" />
<path fill-rule="evenodd" clip-rule="evenodd" d="M18.0425 0.256958H24.5062V1.56711H21.9459V9.3968H21.8687V9.4968H20.6028V1.56711H18.0425V0.256958ZM21.7459 9.2968H20.8028V1.36711H18.2425V0.456958H24.3062V1.36711H21.7459V9.2968Z" />
<path d="M28.9556 9.39678V0.356934H30.1214V9.39678H28.9556Z" />
<path fill-rule="evenodd" clip-rule="evenodd" d="M28.8555 0.256958H30.2213V9.4968H28.8555V0.256958ZM29.0555 0.456958V9.2968H30.0213V0.456958H29.0555Z" />
<path d="M35.3333 9.39678H34.1674V1.46709H31.6299V0.356934H37.8936V1.46709H35.3561V9.39678H35.3333Z" />
<path fill-rule="evenodd" clip-rule="evenodd" d="M31.5298 0.256958H37.9935V1.56711H35.456V9.4968H34.0673V1.56711H31.5298V0.256958ZM31.7298 0.456958V1.36711H34.2673V9.2968H35.256V1.36711H37.7935V0.456958H31.7298Z" />
<path d="M49.7581 8.21885C47.9064 10.054 44.9117 10.054 43.06 8.21885C42.1684 7.33525 41.6884 6.11182 41.7112 4.86572C41.6884 3.61963 42.1684 2.39619 43.06 1.5126C44.9117 -0.322559 47.9064 -0.322559 49.7352 1.5126C50.6268 2.39619 51.1068 3.59697 51.084 4.86572C51.1297 6.11182 50.6496 7.33525 49.7581 8.21885ZM43.9058 7.47119C45.2774 8.83057 47.4949 8.83057 48.8665 7.47119C49.5523 6.76885 49.9181 5.83994 49.8724 4.86572C49.8952 3.8915 49.5295 2.9626 48.8665 2.28291C47.4949 0.923535 45.2774 0.923535 43.9058 2.28291C43.22 2.98525 42.8543 3.91416 42.9 4.86572C42.8771 5.83994 43.2429 6.76885 43.9058 7.47119Z" />
<path fill-rule="evenodd" clip-rule="evenodd" d="M49.6643 1.58321C47.8748 -0.212489 44.9432 -0.213118 43.1303 1.58365C42.2587 2.44745 41.7887 3.64431 41.8111 4.86391L41.8112 4.86758L41.8111 4.86758C41.7887 6.08718 42.2587 7.28405 43.1303 8.14785C44.943 9.94437 47.8749 9.94437 49.6876 8.14785C50.5592 7.284 51.0286 6.08768 50.9839 4.86941L50.9837 4.86394L50.9839 4.86395C51.0063 3.6219 50.5365 2.44761 49.6647 1.58365L49.6643 1.58321ZM49.8057 1.4418C47.9376 -0.43258 44.8799 -0.431873 42.9895 1.4416C42.0784 2.34455 41.5883 3.59379 41.6111 4.86575C41.5883 6.1377 42.0784 7.38694 42.9895 8.2899C44.8802 10.1637 47.9377 10.1637 49.8284 8.2899C50.7392 7.3872 51.2299 6.13778 51.1839 4.86481C51.2065 3.57046 50.7163 2.34437 49.8057 1.4418ZM43.8353 2.21191C45.2459 0.813902 47.5262 0.813902 48.9368 2.21191L48.938 2.2131L48.938 2.21311C49.6192 2.91148 49.9949 3.86509 49.9723 4.86458C50.0184 5.86622 49.6416 6.82046 48.938 7.54108L48.9368 7.54225L48.9368 7.54224C47.5262 8.94025 45.2459 8.94025 43.8353 7.54224L43.833 7.5399L43.833 7.53986C43.1532 6.8196 42.7773 5.86674 42.7998 4.86697C42.7538 3.88754 43.1308 2.9334 43.8342 2.21307L43.8353 2.2119L43.8353 2.21191ZM43.9767 2.35338C43.3097 3.0368 42.9554 3.93877 42.9998 4.86095L43.0001 4.8681L42.9998 4.86809C42.9776 5.8149 43.3328 6.71793 43.9773 7.40136C45.3098 8.72074 47.4632 8.72054 48.7955 7.40077C49.4622 6.71761 49.8168 5.81568 49.7724 4.87043L49.7721 4.8634L49.7723 4.8634C49.7945 3.91603 49.439 3.0135 48.7954 2.35337C47.4629 1.03341 45.3092 1.03341 43.9767 2.35338Z" />
<path d="M52.73 9.39678V0.356934H54.1473L58.5822 7.40303H58.628L58.5822 5.6585V0.356934H59.7481V9.39678H58.5136L53.873 2.01084H53.8273L53.873 3.75537V9.39678H52.73Z" />
<path fill-rule="evenodd" clip-rule="evenodd" d="M52.6299 0.256958H54.2024L58.5203 7.11713L58.4821 5.65852L58.4821 0.256958H59.848V9.4968H58.4583L53.9347 2.29721L53.9729 3.7554L53.9729 9.4968H52.6299V0.256958ZM52.8299 0.456958V9.2968H53.7729V3.75671L53.7245 1.91086H53.9282L58.5688 9.2968H59.648V0.456958H58.6821V5.65721L58.7305 7.50305H58.5269L54.092 0.456958H52.8299Z" />
<path d="M41.4141 22.5829C37.8479 22.5829 34.9218 25.279 34.9218 28.9946C34.9218 32.7103 37.8479 35.4064 41.4141 35.4064C44.9803 35.4064 47.9064 32.6876 47.9064 28.9946C47.9064 25.3017 45.0032 22.5829 41.4141 22.5829ZM41.4141 32.8915C39.4481 32.8915 37.7564 31.2829 37.7564 29.0173C37.7564 26.7517 39.4481 25.1431 41.4141 25.1431C43.3801 25.1431 45.0718 26.729 45.0718 29.0173C45.0718 31.3056 43.3801 32.8689 41.4141 32.8915ZM27.2407 22.5829C23.6745 22.5829 20.7483 25.279 20.7483 28.9946C20.7483 32.7103 23.6745 35.4064 27.2407 35.4064C30.8069 35.4064 33.733 32.6876 33.733 28.9946C33.733 25.3017 30.8298 22.5829 27.2407 22.5829ZM27.2407 32.8915C25.2747 32.8915 23.583 31.2829 23.583 29.0173C23.583 26.7517 25.2747 25.1431 27.2407 25.1431C29.2067 25.1431 30.8983 26.729 30.8983 29.0173C30.8983 31.3056 29.2067 32.8689 27.2407 32.8915ZM10.3926 24.554V27.2728C10.3926 27.2728 17.1364 25.7548 16.9535 27.2728C16.7706 28.7907 16.2448 29.9236 15.4676 30.6939C14.5075 31.6454 13.0215 32.6876 10.3926 32.6876C6.3463 32.6876 3.19157 29.4478 3.19157 25.4603C3.19157 21.4728 6.3463 18.2329 10.3926 18.2329C12.2443 18.2103 14.0274 18.9126 15.3533 20.1814L17.2964 18.2556C15.4676 16.4657 12.9758 15.4689 10.4154 15.5142C4.88324 15.5142 0.219727 19.9775 0.219727 25.4603C0.219727 30.9431 4.88324 35.429 10.4154 35.429C13.4102 35.429 15.6505 34.4548 17.4336 32.6423C19.2396 30.8525 19.8111 28.315 19.8111 26.2759C19.8111 25.7095 19.7653 25.1431 19.6739 24.5767L10.3926 24.554ZM79.3166 26.661C78.7908 25.2337 77.1448 22.5829 73.7844 22.5829C70.4239 22.5829 67.7035 25.1884 67.7035 28.9946C67.7035 32.597 70.4468 35.4064 74.1273 35.4064C76.299 35.429 78.3107 34.3415 79.5223 32.5743L77.3049 31.1243C76.5733 32.1892 75.5675 32.8915 74.1273 32.8915C72.6871 32.8915 71.6584 32.2345 70.9954 30.9431L79.6366 27.4087L79.3166 26.661ZM70.4925 28.7907C70.4239 26.3212 72.4356 25.0525 73.8758 25.0525C74.996 25.0525 75.9561 25.6189 76.2762 26.4118L70.4925 28.7907ZM63.4743 35.0212H66.3319V16.1712H63.4743V35.0212ZM58.8108 24.0103H58.7194C58.0793 23.2626 56.8677 22.5829 55.3132 22.5829C52.067 22.5829 49.118 25.3923 49.118 29.0173C49.118 32.6423 52.0899 35.4064 55.3132 35.4064C56.8677 35.4064 58.0793 34.7267 58.7194 33.9564H58.8108V34.8853C58.8108 37.3321 57.4849 38.6462 55.3589 38.6462C53.6215 38.6462 52.5471 37.4001 52.0899 36.3579L49.621 37.3775C50.5811 39.6884 52.8443 41.1837 55.3589 41.161C58.6965 41.161 61.5084 39.2126 61.5084 34.4775V22.9681H58.8108V24.0103ZM55.5418 32.8689C53.5758 32.8689 51.9299 31.2376 51.9299 28.9946C51.9299 26.7517 53.5758 25.0978 55.5418 25.0978C57.5078 25.0978 58.9937 26.7517 58.9937 29.0173C58.9937 31.2829 57.4849 32.8689 55.5418 32.8689ZM92.6442 16.1712H85.8318V35.0212H88.6665V27.9071H92.6213C95.776 27.9071 98.8622 25.6415 98.8622 22.0618C98.8622 18.4821 95.776 16.1712 92.6442 16.1712ZM92.7128 25.2564H88.6665V18.7993H92.7128C94.5187 18.754 96.0046 20.1587 96.0504 21.9486C96.0961 23.7384 94.6787 25.2111 92.8728 25.2564C92.8271 25.2564 92.7585 25.2564 92.7128 25.2564ZM110.247 22.5376C108.189 22.5376 106.063 23.4439 105.172 25.415L107.686 26.4571C108.235 25.415 109.218 25.0751 110.27 25.0751C111.733 25.0751 113.219 25.9587 113.241 27.4993V27.7032C112.327 27.2275 111.298 26.9782 110.27 26.9782C107.549 26.9782 104.783 28.4509 104.783 31.215C104.783 33.7298 107 35.3611 109.515 35.3611C111.413 35.3611 112.464 34.5001 113.127 33.5259H113.218V34.9759H115.962V27.7712C116.03 24.4181 113.493 22.5603 110.247 22.5376ZM109.904 32.8689C108.966 32.8689 107.686 32.4157 107.686 31.2603C107.686 29.8103 109.309 29.2439 110.704 29.2439C111.618 29.2212 112.51 29.4478 113.287 29.8782C113.081 31.5775 111.618 32.8689 109.904 32.8689ZM125.997 22.9681L122.751 31.147H122.66L119.276 22.9681H116.213L121.288 34.3868L118.408 40.7306H121.38L129.175 22.9681H125.997ZM100.44 35.0212H103.274V16.1712H100.44V35.0212Z" />
</svg>
