<svg width="25" height="24" viewBox="0 0 25 24" fill="none" xmlns="http://www.w3.org/2000/svg">
<g clip-path="url(#clip0_1_2)">
<g clip-path="url(#clip1_1_2)">
<path d="M9.4873 0.0843756C9.13086 0.206251 8.86719 0.389063 8.67188 0.646876C8.35449 1.06406 8.34473 1.14375 8.35938 3.09844C8.37402 4.82344 8.37402 4.85625 8.48633 5.06719C8.75 5.57813 9.25781 5.925 9.81445 5.98125C10.1611 6.01406 10.332 6.07969 10.415 6.20625C10.4541 6.2625 10.6494 6.99844 10.8447 7.84219L11.1963 9.375H12.5H13.8037L14.1553 7.84219C14.3506 6.99844 14.5459 6.2625 14.585 6.20625C14.668 6.07969 14.8389 6.01406 15.1758 5.98125C15.7227 5.92969 16.2549 5.56875 16.5039 5.08594L16.626 4.85156V3C16.626 1.1625 16.626 1.14844 16.5137 0.932813C16.333 0.581251 16.0889 0.346876 15.7324 0.178126L15.4053 0.0234381L12.5732 0.0140631C9.95117 0.00468806 9.72168 0.00937556 9.4873 0.0843756Z" fill="#2D2929"/>
<path d="M11.2402 12.1734C11.2549 13.6078 11.2646 13.65 11.5771 13.9922C12.0605 14.5172 12.9395 14.5172 13.4229 13.9922C13.7354 13.65 13.7451 13.6078 13.7598 12.1734L13.7744 10.875H12.5H11.2256L11.2402 12.1734Z" fill="#2D2929"/>
<path d="M6.81152 12.0703C5.84472 12.2719 4.96582 12.9234 4.5459 13.7391C4.16015 14.4937 4.1748 14.3391 4.1748 18C4.1748 21.6656 4.16015 21.5016 4.55078 22.2656C4.84375 22.8422 5.37109 23.3437 6.00586 23.6437C6.79687 24.0141 6.48437 24 12.4805 24C16.0937 24 17.8955 23.9859 18.0957 23.9484C19.0869 23.775 20.0244 23.1 20.459 22.2469C20.8398 21.5062 20.8252 21.6562 20.8252 18C20.8252 14.3437 20.8398 14.4937 20.459 13.7531C20.0928 13.0312 19.375 12.4406 18.5303 12.1594C18.1494 12.0328 18.1055 12.0281 16.8994 12.0094L15.6592 11.9906L15.7764 12.1734C15.835 12.2719 15.9131 12.3937 15.9473 12.4453C16.1182 12.7031 16.3037 13.3641 16.8262 15.6141C17.4316 18.2016 17.4951 18.6234 17.3828 19.1391C17.1826 20.0672 16.3184 20.8969 15.3418 21.0891C14.9853 21.1594 10.0146 21.1594 9.6582 21.0891C8.68652 20.8969 7.81738 20.0625 7.61718 19.1391C7.50488 18.6234 7.56836 18.2016 8.17382 15.6141C8.80371 12.9187 8.87695 12.675 9.25293 12.1266L9.33593 12L8.22265 12.0047C7.49023 12.0047 7.00195 12.0281 6.81152 12.0703Z" fill="#2D2929"/>
<path d="M9.58008 16.4672C9.33105 17.5312 9.13086 18.5062 9.13086 18.6328C9.13086 19.0594 9.43848 19.4672 9.8584 19.5891C10.1221 19.6641 14.8779 19.6641 15.1416 19.5891C15.5566 19.4672 15.8691 19.0594 15.8691 18.6328C15.8691 18.5062 15.6641 17.5312 15.4199 16.4625C14.9951 14.6437 14.9609 14.5312 14.8926 14.6297C14.5996 15.0516 14.1406 15.4406 13.6963 15.6375C12.4854 16.1766 11.0205 15.825 10.2539 14.8172C10.1318 14.6578 10.0342 14.5312 10.0342 14.5312C10.0293 14.5312 9.8291 15.4031 9.58008 16.4672Z" fill="#2D2929"/>
</g>
</g>
<defs>
<clipPath id="clip0_1_2">
<rect width="25" height="24" fill="white"/>
</clipPath>
<clipPath id="clip1_1_2">
<rect width="25" height="24" fill="white"/>
</clipPath>
</defs>
</svg>
