<svg width="26" height="24" viewBox="0 0 26 24" xmlns="http://www.w3.org/2000/svg">
<path d="M12.3652 0.0281096C10.8125 0.220297 9.56737 0.782798 8.49315 1.77655C6.11522 3.97498 5.86131 7.54217 7.90233 10.0594C9.86033 12.4781 13.4443 13.1625 16.1982 11.639C18.6299 10.2937 19.8847 7.67811 19.3672 5.04842C18.8838 2.61561 16.8428 0.637485 14.3037 0.135922C13.8203 0.0421724 12.751 -0.0187654 12.3652 0.0281096Z" z/>
<path d="M7.77539 12.9843C5.6123 13.35 3.62988 14.639 2.39453 16.4812C2.13574 16.8703 1.81836 17.5312 1.81836 17.6859C1.81836 17.9953 2.74609 19.2515 3.625 20.1281C5.76855 22.2703 8.41504 23.5453 11.4619 23.9109C12.0967 23.9906 13.8643 23.9859 14.4893 23.9109C16.96 23.6062 19.1572 22.7203 21.0566 21.2625C21.6475 20.8125 22.8047 19.664 23.2637 19.0781C23.7764 18.4172 24.1816 17.789 24.1816 17.6437C24.1816 17.5031 23.9082 16.9265 23.6689 16.5703C22.834 15.3187 21.6719 14.2968 20.3682 13.6734C19.416 13.2187 18.2295 12.9047 17.6289 12.9468C17.4238 12.9609 17.2871 13.0078 17.0918 13.125C16.3887 13.5515 16.1641 13.6687 15.7734 13.8328C14.8018 14.2406 13.8105 14.4187 12.7559 14.3765C11.4082 14.325 10.2754 13.9781 9.14746 13.2656C8.90332 13.1109 8.64453 12.975 8.57129 12.9562C8.49316 12.9422 8.40039 12.9234 8.36133 12.914C8.32227 12.9047 8.05859 12.9375 7.77539 12.9843Z" z/>
</svg>
