<svg width="206" height="56" viewBox="0 0 206 56" fill="none" xmlns="http://www.w3.org/2000/svg">
<path d="M8.45648 32.2774C10.1207 24.071 17.8107 17.414 25.3285 17.414C29.0587 17.414 32.0429 19.0208 34.5106 21.259L39.3312 16.9549C36.347 13.6837 31.8708 11.6752 26.5337 11.6752C14.9987 11.6752 3.80806 20.8572 1.39777 32.2774C-1.01253 43.6976 6.33313 52.8797 17.8107 52.8797C23.033 52.8797 28.7144 50.9859 32.8463 47.5426L36.6913 29.4654H29.7474L28.5422 35.0894L26.3615 45.1897C24.0086 46.3949 21.4835 47.1409 19.0159 47.1409C11.3833 47.1409 6.79223 40.4839 8.45648 32.2774Z" fill="white"/>
<path d="M38.5273 32.3348C36.117 43.755 43.4053 52.9945 54.8829 52.9945C66.4752 52.9945 77.6659 43.755 80.0762 32.3348C82.4865 20.9146 75.1408 11.6752 63.6632 11.6752C52.1282 11.6752 40.9376 20.9146 38.5273 32.3348ZM45.586 32.3348C47.2503 24.1284 54.9402 17.414 62.4581 17.414C69.9759 17.414 74.7965 24.1284 72.9601 32.3348C71.2958 40.5413 63.6632 47.1983 56.1454 47.1983C48.5128 47.1983 43.9218 40.5413 45.586 32.3348Z" fill="white"/>
<path d="M133.15 32.2774C134.814 24.071 142.504 17.414 150.022 17.414C153.752 17.414 156.736 19.0208 159.204 21.259L164.024 16.9549C161.04 13.6837 156.564 11.6752 151.227 11.6752C139.692 11.6752 128.501 20.8572 126.091 32.2774C123.681 43.6976 131.026 52.8797 142.504 52.8797C147.726 52.8797 153.408 50.9859 157.539 47.5426L161.384 29.4654H154.441L153.235 35.0894L151.055 45.1897C148.702 46.3949 146.177 47.1409 143.709 47.1409C136.076 47.1409 131.485 40.4839 133.15 32.2774Z" fill="white"/>
<path d="M163.22 32.3348C160.81 43.755 168.098 52.9945 179.576 52.9945C191.168 52.9945 202.359 43.755 204.769 32.3348C207.18 20.9146 199.834 11.6752 188.356 11.6752C176.821 11.6752 165.631 20.9146 163.22 32.3348ZM170.279 32.3348C171.943 24.1284 179.633 17.414 187.151 17.414C194.669 17.414 199.49 24.1284 197.653 32.3348C195.989 40.5413 188.356 47.1983 180.839 47.1983C173.206 47.1983 168.615 40.5413 170.279 32.3348Z" fill="white"/>
<path fill-rule="evenodd" clip-rule="evenodd" d="M90.6449 16.2595C93.904 14.3568 99.5508 11.8141 104.724 10.9084C107.406 10.4387 109.501 10.4935 110.936 10.9268C112.144 11.2916 112.889 11.8967 113.396 13.0816C113.717 13.8305 113.969 14.9374 113.572 16.1213C113.207 17.2068 111.927 19.454 106.946 21.8166L106.748 21.9102L106.559 22.0199L93.4623 29.614L93.2876 29.7153L93.1211 29.8297C92.065 30.555 90.5174 31.7792 88.9814 33.2867C87.4785 34.7617 85.7165 36.7695 84.5229 39.0806C82.3435 43.3008 82.3621 48.3245 85.9576 50.9311C86.2272 51.1464 86.4384 51.2727 86.5181 51.3204L86.5181 51.3204L86.5182 51.3205L86.5345 51.3302C87.0699 51.6535 87.5558 51.8214 87.8069 51.9007C88.3519 52.0728 88.8861 52.1613 89.2991 52.2151C90.174 52.3291 91.3372 52.3889 92.8758 52.3889H117.351L119.12 41.8105H95.4605C95.7461 41.49 96.0578 41.1636 96.391 40.8365C97.3954 39.8508 98.3803 39.0682 98.9626 38.6528L111.683 31.2769C118.268 28.1082 122.069 24.0447 123.599 19.4909C125.112 14.9887 124.042 11.0708 123.122 8.92006C121.255 4.55823 117.87 1.97051 113.994 0.800058C110.345 -0.30194 106.402 -0.124916 102.899 0.488477C99.4137 1.09875 95.9072 2.22456 92.7792 3.49244L90.6449 16.2595ZM90.6151 41.7179L90.6196 41.7185L90.636 41.7213C90.6217 41.7192 90.6149 41.718 90.6151 41.7179Z" fill="#76E0FF"/>
<path fill-rule="evenodd" clip-rule="evenodd" d="M91.5336 10.944C94.9097 8.97715 100.29 6.68862 105.433 6.1348C108.087 5.84908 110.619 6.03149 112.767 6.90477C114.888 7.76715 116.68 9.31999 117.871 11.8794C118.833 14.1445 118.883 20.6005 108.613 25.8381L108.592 25.8485L108.573 25.8599L96.0107 33.1326L95.9823 33.149L95.9553 33.1676C95.143 33.7246 93.8481 34.7414 92.5505 36.0129C91.2584 37.2791 89.9194 38.8405 89.0664 40.4897C88.2083 42.1488 87.9639 43.6206 88.0821 44.7985C88.1953 45.9261 88.6595 46.8815 89.3407 47.3434C89.4943 47.4523 89.6716 47.5599 89.9067 47.6406C90.1348 47.719 90.3777 47.7585 90.6495 47.7821C91.1614 47.8267 91.9512 47.8267 93.2562 47.8267H93.334H118.114L118.392 46.1659V46.1077H93.334C91.9351 46.1077 91.2254 46.1068 90.7987 46.0696C90.5961 46.052 90.5076 46.0295 90.4651 46.0149C90.4348 46.0044 90.4049 45.9911 90.3295 45.9372L90.3182 45.9292L90.3067 45.9215C90.2013 45.8512 89.877 45.4692 89.7925 44.6269C89.7123 43.8279 89.8646 42.6882 90.5932 41.2795C91.327 39.8609 92.5224 38.4472 93.7537 37.2407C94.9647 36.0539 96.1677 35.1091 96.9008 34.6035L109.414 27.359C120.264 21.8166 120.859 14.4876 119.446 11.1909L119.441 11.1792L119.436 11.1677C118.059 8.20069 115.935 6.33741 113.414 5.31237C110.916 4.29689 108.075 4.12141 105.249 4.42568C100.393 4.94857 95.4114 6.90722 91.896 8.77595L91.5336 10.944Z" fill="white"/>
</svg>
