<svg width="176" height="48" viewBox="0 0 176 48" fill="none" xmlns="http://www.w3.org/2000/svg">
<path d="M7.22981 27.5959C8.65267 20.5797 15.2273 14.8882 21.6547 14.8882C24.8439 14.8882 27.3953 16.262 29.505 18.1755L33.6264 14.4957C31.0751 11.699 27.2481 9.98175 22.6851 9.98175C12.8231 9.98175 3.25559 17.8321 1.19489 27.5959C-0.865816 37.3597 5.41443 45.21 15.2273 45.21C19.6922 45.21 24.5495 43.5909 28.0822 40.647L31.3695 25.1917H25.4327L24.4023 30L22.5379 38.6354C20.5263 39.6657 18.3674 40.3035 16.2577 40.3035C9.73209 40.3035 5.80694 34.6121 7.22981 27.5959Z" fill="#2D2929"/>
<path d="M32.9392 27.6449C30.8785 37.4087 37.1096 45.3081 46.9225 45.3081C56.8335 45.3081 66.4011 37.4087 68.4618 27.6449C70.5225 17.8811 64.2422 9.98175 54.4294 9.98175C44.5674 9.98175 34.9999 17.8811 32.9392 27.6449ZM38.9741 27.6449C40.3969 20.6287 46.9716 14.8882 53.399 14.8882C59.8264 14.8882 63.9479 20.6287 62.3778 27.6449C60.9549 34.6611 54.4294 40.3526 48.0019 40.3526C41.4764 40.3526 37.5512 34.6611 38.9741 27.6449Z" fill="#2D2929"/>
<path d="M113.837 27.5959C115.26 20.5797 121.835 14.8882 128.262 14.8882C131.452 14.8882 134.003 16.262 136.113 18.1755L140.234 14.4957C137.683 11.699 133.856 9.98175 129.293 9.98175C119.431 9.98175 109.863 17.8321 107.803 27.5959C105.742 37.3597 112.022 45.21 121.835 45.21C126.3 45.21 131.157 43.5909 134.69 40.647L137.977 25.1917H132.04L131.01 30L129.146 38.6354C127.134 39.6657 124.975 40.3035 122.865 40.3035C116.34 40.3035 112.415 34.6121 113.837 27.5959Z" fill="#2D2929"/>
<path d="M139.547 27.6449C137.486 37.4087 143.717 45.3081 153.53 45.3081C163.441 45.3081 173.009 37.4087 175.069 27.6449C177.13 17.8811 170.85 9.98175 161.037 9.98175C151.175 9.98175 141.607 17.8811 139.547 27.6449ZM145.582 27.6449C147.005 20.6287 153.579 14.8882 160.007 14.8882C166.434 14.8882 170.555 20.6287 168.985 27.6449C167.563 34.6611 161.037 40.3526 154.61 40.3526C148.084 40.3526 144.159 34.6611 145.582 27.6449Z" fill="#2D2929"/>
<path fill-rule="evenodd" clip-rule="evenodd" d="M77.4983 13.9012C80.2848 12.2745 85.1124 10.1007 89.5349 9.32635C91.8283 8.9248 93.6194 8.97168 94.8461 9.34212C95.879 9.65403 96.5163 10.1713 96.9498 11.1844C97.2238 11.8246 97.4397 12.771 97.0996 13.7832C96.7877 14.7113 95.6934 16.6326 91.4347 18.6524L91.2659 18.7325L91.1042 18.8262L79.907 25.3189L79.7576 25.4055L79.6153 25.5033C78.7123 26.1234 77.3892 27.17 76.0759 28.4589C74.791 29.72 73.2846 31.4366 72.2642 33.4125C70.4008 37.0206 70.4168 41.3157 73.4908 43.5442C73.7213 43.7283 73.9019 43.8363 73.97 43.877L73.97 43.8771L73.9839 43.8854C74.4417 44.1618 74.8571 44.3053 75.0718 44.3731C75.5378 44.5203 75.9945 44.596 76.3476 44.642C77.0956 44.7394 78.0901 44.7906 79.4055 44.7906H100.331L101.843 35.7464H81.6154C81.8595 35.4724 82.126 35.1934 82.4109 34.9137C83.2696 34.071 84.1117 33.4019 84.6095 33.0467L95.485 26.7406C101.115 24.0315 104.364 20.5573 105.673 16.664C106.966 12.8148 106.052 9.46521 105.265 7.62642C103.669 3.89722 100.774 1.68483 97.4606 0.68414C94.3406 -0.258025 90.9702 -0.106676 87.9751 0.41775C84.9952 0.939501 81.9973 1.902 79.323 2.98597L77.4983 13.9012ZM77.4727 35.6673C77.4729 35.6672 77.4791 35.6681 77.4906 35.6702C77.4783 35.6684 77.4725 35.6673 77.4727 35.6673Z" fill="#76E0FF"/>
<path fill-rule="evenodd" clip-rule="evenodd" d="M78.2578 9.35672C81.1443 7.67519 85.7443 5.71864 90.1415 5.24515C92.4101 5.00087 94.5747 5.15683 96.411 5.90345C98.2244 6.64075 99.7565 7.96836 100.775 10.1565C101.597 12.0931 101.64 17.6127 92.8597 22.0907L92.8423 22.0995L92.8253 22.1093L82.0854 28.3272L82.0612 28.3412L82.038 28.3571C81.3436 28.8333 80.2365 29.7027 79.1272 30.7897C78.0224 31.8723 76.8777 33.2072 76.1483 34.6173C75.4147 36.0357 75.2057 37.294 75.3068 38.3011C75.4036 39.2652 75.8005 40.082 76.3829 40.4769C76.5142 40.57 76.6658 40.6619 76.8667 40.731C77.0618 40.798 77.2695 40.8317 77.5018 40.852C77.9395 40.8901 78.6146 40.8901 79.7302 40.8901H79.7302H79.7303H79.7969H79.797H100.983L101.22 39.4707V39.4204H79.797H79.7969C78.6009 39.4204 77.9942 39.4196 77.6294 39.3878C77.4562 39.3727 77.3805 39.3535 77.3442 39.341C77.3183 39.3321 77.2927 39.3207 77.2282 39.2746L77.2186 39.2677L77.2087 39.2612C77.1186 39.2011 76.8414 38.8745 76.7691 38.1543C76.7006 37.4713 76.8308 36.4968 77.4537 35.2925C78.081 34.0797 79.1031 32.871 80.1558 31.8394C81.1912 30.8248 82.2197 30.017 82.8465 29.5848L93.5449 23.391C102.821 18.6524 103.33 12.3865 102.122 9.56794L102.117 9.55793L102.113 9.54804C100.935 7.01141 99.12 5.41837 96.9646 4.54201C94.8292 3.67381 92.4 3.52378 89.9842 3.78392C85.8326 4.23097 81.5732 5.9055 78.5677 7.50316L78.2578 9.35672Z" fill="white"/>
</svg>
