<svg width="0" height="0" class="hidden">
  <symbol fill="none" xmlns="http://www.w3.org/2000/svg" viewBox="0 0 203 58" id="android">
    <path d="M70.9126 14.228C70.9126 15.4968 70.524 16.4937 69.7696 17.2413C68.9009 18.1249 67.7807 18.578 66.4091 18.578C63.803 18.6007 61.6999 16.539 61.677 13.9562C61.677 13.9108 61.677 13.8882 61.677 13.8429C61.6313 11.2601 63.7116 9.15303 66.3177 9.13037H66.432C67.0721 9.13037 67.7121 9.26631 68.3065 9.51553C68.8552 9.74209 69.3352 10.0819 69.7239 10.5351L68.9237 11.328C68.3065 10.603 67.4835 10.2632 66.432 10.2632C64.4888 10.2632 62.8886 11.8038 62.8886 13.7522V13.8882C62.82 15.814 64.3288 17.4452 66.2719 17.5132H66.432C67.3921 17.5358 68.3065 17.1733 68.9695 16.4937C69.4267 15.9952 69.701 15.3382 69.7467 14.6585H66.432V13.571H70.8669C70.8897 13.7749 70.9126 14.0015 70.9126 14.228Z" fill="white" stroke="white" stroke-width="0.2" stroke-miterlimit="10"></path>
    <path d="M77.931 10.4671H73.7704V13.3444H77.5195V14.4319H73.7704V17.3093H77.931V18.4194H72.6045V9.35693H77.931V10.4671Z" fill="white" stroke="white" stroke-width="0.2" stroke-miterlimit="10"></path>
    <path d="M82.8688 18.3968H81.7029V10.4671H79.1426V9.35693H85.4063V10.4671H82.846V18.3968H82.8688Z" fill="white" stroke="white" stroke-width="0.2" stroke-miterlimit="10"></path>
    <path d="M89.9556 18.3968V9.35693H91.1214V18.3968H89.9556Z" fill="white" stroke="white" stroke-width="0.2" stroke-miterlimit="10"></path>
    <path d="M96.3333 18.3968H95.1674V10.4671H92.6299V9.35693H98.8936V10.4671H96.3561V18.3968H96.3333Z" fill="white" stroke="white" stroke-width="0.2" stroke-miterlimit="10"></path>
    <path d="M110.758 17.2188C108.906 19.054 105.912 19.054 104.06 17.2188C103.168 16.3353 102.688 15.1118 102.711 13.8657C102.688 12.6196 103.168 11.3962 104.06 10.5126C105.912 8.67744 108.906 8.67744 110.735 10.5126C111.627 11.3962 112.107 12.597 112.084 13.8657C112.13 15.1118 111.65 16.3353 110.758 17.2188ZM104.906 16.4712C106.277 17.8306 108.495 17.8306 109.867 16.4712C110.552 15.7688 110.918 14.8399 110.872 13.8657C110.895 12.8915 110.529 11.9626 109.867 11.2829C108.495 9.92353 106.277 9.92353 104.906 11.2829C104.22 11.9853 103.854 12.9142 103.9 13.8657C103.877 14.8399 104.243 15.7688 104.906 16.4712Z" fill="white" stroke="white" stroke-width="0.2" stroke-miterlimit="10"></path>
    <path d="M113.73 18.3968V9.35693H115.147L119.582 16.403H119.628L119.582 14.6585V9.35693H120.748V18.3968H119.514L114.873 11.0108H114.827L114.873 12.7554V18.3968H113.73Z" fill="white" stroke="white" stroke-width="0.2" stroke-miterlimit="10"></path>
    <path d="M102.414 31.5829C98.8479 31.5829 95.9218 34.279 95.9218 37.9946C95.9218 41.7103 98.8479 44.4064 102.414 44.4064C105.98 44.4064 108.906 41.6876 108.906 37.9946C108.906 34.3017 106.003 31.5829 102.414 31.5829ZM102.414 41.8915C100.448 41.8915 98.7564 40.2829 98.7564 38.0173C98.7564 35.7517 100.448 34.1431 102.414 34.1431C104.38 34.1431 106.072 35.729 106.072 38.0173C106.072 40.3056 104.38 41.8689 102.414 41.8915ZM88.2407 31.5829C84.6745 31.5829 81.7483 34.279 81.7483 37.9946C81.7483 41.7103 84.6745 44.4064 88.2407 44.4064C91.8069 44.4064 94.733 41.6876 94.733 37.9946C94.733 34.3017 91.8298 31.5829 88.2407 31.5829ZM88.2407 41.8915C86.2747 41.8915 84.583 40.2829 84.583 38.0173C84.583 35.7517 86.2747 34.1431 88.2407 34.1431C90.2067 34.1431 91.8983 35.729 91.8983 38.0173C91.8983 40.3056 90.2067 41.8689 88.2407 41.8915ZM71.3926 33.554V36.2728H77.9535C77.7706 37.7907 77.2448 38.9235 76.4676 39.6939C75.5075 40.6454 74.0215 41.6876 71.3926 41.6876C67.3463 41.6876 64.1916 38.4478 64.1916 34.4603C64.1916 30.4728 67.3463 27.2329 71.3926 27.2329C73.2443 27.2103 75.0274 27.9126 76.3533 29.1814L78.2964 27.2556C76.4676 25.4657 73.9758 24.4689 71.4154 24.5142C65.8832 24.5142 61.2197 28.9775 61.2197 34.4603C61.2197 39.9431 65.8832 44.429 71.4154 44.429C74.4102 44.429 76.6505 43.4548 78.4336 41.6423C80.2396 39.8525 80.8111 37.315 80.8111 35.2759C80.8111 34.7095 80.7653 34.1431 80.6739 33.5767L71.3926 33.554ZM140.317 35.661C139.791 34.2337 138.145 31.5829 134.784 31.5829C131.424 31.5829 128.704 34.1884 128.704 37.9946C128.704 41.597 131.447 44.4064 135.127 44.4064C137.299 44.429 139.311 43.3415 140.522 41.5743L138.305 40.1243C137.573 41.1892 136.567 41.8915 135.127 41.8915C133.687 41.8915 132.658 41.2345 131.995 39.9431L140.637 36.4087L140.317 35.661ZM131.492 37.7907C131.424 35.3212 133.436 34.0525 134.876 34.0525C135.996 34.0525 136.956 34.6189 137.276 35.4118L131.492 37.7907ZM124.474 44.0212H127.332V25.1712H124.474V44.0212ZM119.811 33.0103H119.719C119.079 32.2626 117.868 31.5829 116.313 31.5829C113.067 31.5829 110.118 34.3923 110.118 38.0173C110.118 41.6423 113.09 44.4064 116.313 44.4064C117.868 44.4064 119.079 43.7267 119.719 42.9564H119.811V43.8853C119.811 46.3321 118.485 47.6462 116.359 47.6462C114.622 47.6462 113.547 46.4001 113.09 45.3579L110.621 46.3775C111.581 48.6884 113.844 50.1837 116.359 50.161C119.697 50.161 122.508 48.2126 122.508 43.4775V31.9681H119.811V33.0103ZM116.542 41.8689C114.576 41.8689 112.93 40.2376 112.93 37.9946C112.93 35.7517 114.576 34.0978 116.542 34.0978C118.508 34.0978 119.994 35.7517 119.994 38.0173C119.994 40.2829 118.485 41.8689 116.542 41.8689ZM153.644 25.1712H146.832V44.0212H149.666V36.9071H153.621C156.776 36.9071 159.862 34.6415 159.862 31.0618C159.862 27.4821 156.776 25.1712 153.644 25.1712ZM153.713 34.2564H149.666V27.7993H153.713C155.519 27.754 157.005 29.1587 157.05 30.9486C157.096 32.7384 155.679 34.2111 153.873 34.2564C153.827 34.2564 153.758 34.2564 153.713 34.2564ZM171.247 31.5376C169.189 31.5376 167.063 32.4439 166.172 34.415L168.686 35.4571C169.235 34.415 170.218 34.0751 171.27 34.0751C172.733 34.0751 174.218 34.9587 174.241 36.4993V36.7032C173.327 36.2275 172.298 35.9782 171.27 35.9782C168.549 35.9782 165.783 37.4509 165.783 40.215C165.783 42.7298 168 44.3611 170.515 44.3611C172.413 44.3611 173.464 43.5001 174.127 42.5259H174.218V43.9759H176.962V36.7712C177.03 33.4181 174.493 31.5603 171.247 31.5376ZM170.904 41.8689C169.966 41.8689 168.686 41.4157 168.686 40.2603C168.686 38.8103 170.309 38.2439 171.704 38.2439C172.618 38.2212 173.51 38.4478 174.287 38.8782C174.081 40.5775 172.618 41.8689 170.904 41.8689ZM186.997 31.9681L183.751 40.147H183.66L180.276 31.9681H177.213L182.288 43.3868L179.408 49.7306H182.38L190.175 31.9681H186.997ZM161.44 44.0212H164.274V25.1712H161.44V44.0212Z" fill="white"></path>
    <path d="M14.6535 10.15C14.2191 10.6031 13.9448 11.3281 13.9448 12.257V45.607C13.9448 46.5359 14.1963 47.2609 14.6535 47.7367L14.7678 47.8499L33.6047 29.1812V28.7507L14.7678 10.0593L14.6535 10.15Z" fill="url(#paint0_linear_13_170)"></path>
    <path d="M39.8911 35.389L33.6045 29.1585V28.728L39.8911 22.4976L40.0283 22.5882L47.4807 26.7796C49.6067 27.9804 49.6067 29.9288 47.4807 31.1296L40.0283 35.2983L39.8911 35.389Z" fill="url(#paint1_linear_13_170)"></path>
    <path d="M40.0283 35.2985L33.6045 28.9321L14.6533 47.7368C15.362 48.4618 16.505 48.5524 17.8081 47.8274L40.0283 35.2985Z" fill="url(#paint2_linear_13_170)"></path>
    <path d="M40.0283 22.5883L17.8081 10.0594C16.505 9.33439 15.3391 9.42502 14.6533 10.15L33.6045 28.932L40.0283 22.5883Z" fill="url(#paint3_linear_13_170)"></path>
    <path opacity="0.2" d="M39.8911 35.1851L17.8081 47.6233C16.5736 48.3257 15.4763 48.2804 14.7676 47.646L14.6533 47.7593L14.7676 47.8726C15.4763 48.5069 16.5736 48.5522 17.8081 47.8499L40.0283 35.321L39.8911 35.1851Z" fill="#2D2929"></path>
    <path opacity="0.12" d="M14.6535 47.5101C14.2191 47.0569 13.9448 46.3319 13.9448 45.3804V45.6069C13.9448 46.5358 14.1963 47.2608 14.6535 47.7366L14.7678 47.6233L14.6535 47.5101Z" fill="#2D2929"></path>
    <path opacity="0.12" d="M47.4808 30.903L39.8911 35.1851L40.0283 35.321L47.4808 31.1296C48.5323 30.5405 49.081 29.7476 49.081 28.9546C48.9895 29.6569 48.4409 30.3593 47.4808 30.903Z" fill="#2D2929"></path>
    <path opacity="0.25" d="M17.8082 10.2859L47.481 26.9835C48.4411 27.5273 48.9898 28.2296 49.0812 28.932C49.0812 28.139 48.5554 27.346 47.481 26.757L17.8082 10.0593C15.6822 8.85854 13.9448 9.85542 13.9448 12.2796V12.5062C13.9448 10.082 15.6822 9.0851 17.8082 10.2859Z" fill="white"></path>
    <defs>
      <linearGradient id="paint0_linear_13_170" x1="31.9421" y1="11.9234" x2="6.643" y2="37.4504" gradientUnits="userSpaceOnUse">
        <stop stop-color="#00A0FF"></stop>
        <stop offset="0.01" stop-color="#00A1FF"></stop>
        <stop offset="0.26" stop-color="#00BEFF"></stop>
        <stop offset="0.51" stop-color="#00D2FF"></stop>
        <stop offset="0.76" stop-color="#00DFFF"></stop>
        <stop offset="1" stop-color="#00E3FF"></stop>
      </linearGradient>
      <linearGradient id="paint1_linear_13_170" x1="50.2468" y1="28.9501" x2="13.4417" y2="28.9501" gradientUnits="userSpaceOnUse">
        <stop stop-color="#FFE000"></stop>
        <stop offset="0.41" stop-color="#FFBD00"></stop>
        <stop offset="0.78" stop-color="#FFA500"></stop>
        <stop offset="1" stop-color="#FF9C00"></stop>
      </linearGradient>
      <linearGradient id="paint2_linear_13_170" x1="36.5432" y1="32.4019" x2="2.23628" y2="67.018" gradientUnits="userSpaceOnUse">
        <stop stop-color="#FF3A44"></stop>
        <stop offset="1" stop-color="#C31162"></stop>
      </linearGradient>
      <linearGradient id="paint3_linear_13_170" x1="9.88293" y1="-0.940781" x2="25.2026" y2="14.5168" gradientUnits="userSpaceOnUse">
        <stop stop-color="#32A071"></stop>
        <stop offset="0.07" stop-color="#2DA771"></stop>
        <stop offset="0.48" stop-color="#15CF74"></stop>
        <stop offset="0.8" stop-color="#06E775"></stop>
        <stop offset="1" stop-color="#00F076"></stop>
      </linearGradient>
    </defs>
  </symbol>
  <symbol fill="none" xmlns="http://www.w3.org/2000/svg" viewBox="0 0 32 38" id="appstore">
    <path d="M26.2847 20.1832C26.2387 15.3978 30.1925 13.0741 30.3764 12.9821C28.1466 9.71513 24.6755 9.278 23.4572 9.23199C20.5379 8.9329 17.7104 10.9805 16.2392 10.9805C14.7681 10.9805 12.4464 9.278 9.98672 9.32402C6.7915 9.37003 3.82613 11.1876 2.21703 14.0404C-1.1391 19.8611 1.3665 28.3966 4.58471 33.113C6.19384 35.4137 8.07879 37.9904 10.5384 37.8984C12.9521 37.8064 13.8486 36.3569 16.745 36.3569C19.6413 36.3569 20.4689 37.8984 22.9745 37.8294C25.5491 37.7834 27.1812 35.5287 28.7443 33.205C29.8936 31.5715 30.7901 29.754 31.3878 27.8444C31.2959 27.7984 26.3306 25.9119 26.2847 20.1832Z" fill="white"></path>
    <path d="M21.5496 6.14916C22.8369 4.53869 23.7334 2.33004 23.4805 0.0983887C21.6186 0.190416 19.2739 1.38677 17.9176 2.97423C16.7223 4.37764 15.6649 6.65531 15.9407 8.81794C18.0325 8.95599 20.1933 7.73663 21.5496 6.14916Z" fill="white"></path>
  </symbol>
  <symbol xmlns="http://www.w3.org/2000/svg" viewBox="0 0 126 42" id="appstore-title">
    <path d="M13.1569 31.2846H5.27234L3.38738 36.8983H0.03125L7.50209 16.1692H10.9732L18.444 36.8983H15.0419L13.1569 31.2846ZM6.07689 28.7079H12.3294L9.24912 19.6202H9.18016L6.07689 28.7079Z"></path>
    <path d="M34.627 29.3523C34.627 34.0457 32.1214 37.0596 28.3285 37.0596C26.1677 37.0596 24.4667 36.0933 23.5702 34.4138H23.5012V41.914H20.3979V21.7831H23.4093V24.2909H23.4553C24.3288 22.6804 26.1448 21.6221 28.2826 21.6221C32.0984 21.6221 34.627 24.659 34.627 29.3523ZM31.4318 29.3523C31.4318 26.2924 29.8457 24.2909 27.432 24.2909C25.0644 24.2909 23.4782 26.3385 23.4782 29.3523C23.4782 32.3662 25.0644 34.4368 27.432 34.4368C29.8457 34.4368 31.4318 32.4352 31.4318 29.3523Z"></path>
    <path d="M51.2467 29.3523C51.2467 34.0457 48.7411 37.0596 44.9482 37.0596C42.7874 37.0596 41.0863 36.0933 40.1898 34.4138H40.1209V41.914H37.0176V21.7831H40.0289V24.2909H40.0749C40.9484 22.6574 42.7644 21.6221 44.8792 21.6221C48.7181 21.6221 51.2467 24.659 51.2467 29.3523ZM48.0514 29.3523C48.0514 26.2924 46.4653 24.2909 44.0517 24.2909C41.684 24.2909 40.0979 26.3385 40.0979 29.3523C40.0979 32.3662 41.684 34.4368 44.0517 34.4368C46.4653 34.4368 48.0514 32.4352 48.0514 29.3523Z"></path>
    <path d="M62.2348 31.1237C62.4646 33.1713 64.4645 34.5287 67.177 34.5287C69.7976 34.5287 71.6595 33.1713 71.6595 31.3308C71.6595 29.7203 70.5332 28.754 67.8436 28.0868L65.1541 27.4426C61.3613 26.5224 59.5912 24.7508 59.5912 21.852C59.5912 18.2629 62.7175 15.8242 67.1311 15.8242C71.5216 15.8242 74.5099 18.2859 74.6019 21.852H71.4756C71.2917 19.7814 69.5907 18.539 67.0851 18.539C64.5795 18.539 62.8784 19.8044 62.8784 21.6449C62.8784 23.1174 63.9818 23.9686 66.6483 24.6358L68.924 25.188C73.1767 26.2003 74.9467 27.9028 74.9467 30.9397C74.9467 34.8278 71.8664 37.2435 66.9472 37.2435C62.3497 37.2435 59.2464 34.8738 59.0396 31.1237H62.2348Z"></path>
    <path d="M81.6358 18.217V21.8061H84.5092V24.2448H81.6358V32.5732C81.6358 33.8616 82.2104 34.4598 83.4747 34.4598C83.8196 34.4598 84.1644 34.4368 84.4862 34.3908V36.8295C83.9115 36.9445 83.3368 36.9905 82.7621 36.9675C79.7048 36.9675 78.5095 35.8172 78.5095 32.8953V24.2448H76.3027V21.7831H78.5095V18.217H81.6358Z"></path>
    <path d="M86.187 29.3524C86.187 24.59 88.9915 21.5991 93.359 21.5991C97.7266 21.5991 100.531 24.59 100.531 29.3524C100.531 34.1148 97.7496 37.1057 93.359 37.1057C88.9685 37.1057 86.187 34.1148 86.187 29.3524ZM97.3588 29.3524C97.3588 26.0854 95.8646 24.1529 93.359 24.1529C90.8534 24.1529 89.3593 26.0854 89.3593 29.3524C89.3593 32.6194 90.8534 34.5519 93.359 34.5519C95.8646 34.5519 97.3588 32.6194 97.3588 29.3524Z"></path>
    <path d="M103.06 21.7831H106.025V24.3599H106.094C106.577 22.6574 107.956 21.6221 109.726 21.6221C110.094 21.6221 110.438 21.6681 110.783 21.7371V24.636C110.324 24.4979 109.864 24.4289 109.381 24.4519C107.381 24.4519 106.14 25.8093 106.14 27.9259V36.8985H103.037V21.7831H103.06Z"></path>
    <path d="M125.081 32.4581C124.667 35.1959 122.001 37.0825 118.576 37.0825C114.185 37.0825 111.45 34.1376 111.45 29.3982C111.45 24.6588 114.185 21.5759 118.438 21.5759C122.621 21.5759 125.242 24.4518 125.242 29.0301V30.0884H114.576V30.2725C114.576 32.8492 116.208 34.5517 118.645 34.5517C120.369 34.5517 121.725 33.7235 122.139 32.4351L125.081 32.4581ZM114.599 27.9488H122.162C122.093 25.6251 120.599 24.1067 118.461 24.1067C116.323 24.1067 114.76 25.6711 114.599 27.9488Z"></path>
    <path d="M5.6861 0.547852C8.65145 0.547852 10.3755 2.36538 10.3755 5.4943C10.3755 8.66923 8.65145 10.5098 5.6861 10.5098H2.1001V0.547852H5.6861ZM3.64024 9.10636H5.5252C7.61703 9.10636 8.81236 7.81798 8.81236 5.51731C8.81236 3.26265 7.59405 1.95126 5.5252 1.95126H3.64024V9.10636Z"></path>
    <path d="M12.1226 6.75978C12.1226 4.34407 13.4788 2.84863 15.6626 2.84863C17.8464 2.84863 19.2026 4.32106 19.2026 6.75978C19.2026 9.19849 17.8464 10.6709 15.6626 10.6709C13.4788 10.6709 12.1226 9.19849 12.1226 6.75978ZM17.6855 6.75978C17.6855 5.1263 16.9499 4.18302 15.6626 4.18302C14.3753 4.18302 13.6397 5.1263 13.6397 6.75978C13.6397 8.39326 14.3753 9.33653 15.6626 9.33653C16.9499 9.33653 17.6855 8.39326 17.6855 6.75978Z"></path>
    <path d="M28.6276 10.5098H27.0874L25.5243 4.96515H25.4094L23.8692 10.5098H22.3521L20.2832 2.98657H21.7774L23.1336 8.73826H23.2486L24.7887 2.98657H26.2139L27.754 8.73826H27.869L29.2022 2.98657H30.6964L28.6276 10.5098Z"></path>
    <path d="M32.4429 2.98667H33.8681V4.18302H33.983C34.3508 3.35478 35.0864 2.84863 36.2358 2.84863C37.9139 2.84863 38.8334 3.86093 38.8334 5.65545V10.5329H37.3392V6.02356C37.3392 4.82721 36.8105 4.20603 35.7071 4.20603C34.6037 4.20603 33.9141 4.94225 33.9141 6.11559V10.5099H32.4199V2.98667H32.4429Z"></path>
    <path d="M41.1782 0.0646973H42.6724V10.5098H41.1782V0.0646973Z"></path>
    <path d="M44.7183 6.75978C44.7183 4.34407 46.0745 2.84863 48.2583 2.84863C50.4421 2.84863 51.7983 4.32106 51.7983 6.75978C51.7983 9.19849 50.4421 10.6709 48.2583 10.6709C46.0745 10.6709 44.7183 9.19849 44.7183 6.75978ZM50.2812 6.75978C50.2812 5.1263 49.5456 4.18302 48.2583 4.18302C46.971 4.18302 46.2354 5.1263 46.2354 6.75978C46.2354 8.39326 46.948 9.33653 48.2583 9.33653C49.5686 9.33653 50.2812 8.39326 50.2812 6.75978Z"></path>
    <path d="M53.3613 8.39326C53.3613 7.03586 54.3728 6.25363 56.1658 6.1386L58.1886 6.02356V5.37937C58.1886 4.59715 57.6599 4.13701 56.6485 4.13701C55.821 4.13701 55.2463 4.4361 55.0854 4.96525H53.6602C53.8211 3.67688 55.0164 2.84863 56.7175 2.84863C58.6024 2.84863 59.6598 3.79191 59.6598 5.37937V10.5099H58.2346V9.45157H58.1197C57.6599 10.2108 56.8554 10.6249 55.8669 10.6249C54.4417 10.6479 53.3613 9.77366 53.3613 8.39326ZM58.1886 7.74907V7.12789L56.3497 7.24292C55.3152 7.31194 54.8555 7.65704 54.8555 8.32424C54.8555 8.99143 55.4302 9.40555 56.2577 9.40555C57.3841 9.38255 58.2116 8.69235 58.1886 7.74907Z"></path>
    <path d="M61.6367 6.75972C61.6367 4.39002 62.855 2.87158 64.763 2.87158C65.7974 2.87158 66.6479 3.35472 67.0617 4.18296H67.1766V0.041748H68.6708V10.4868H67.2456V9.29046H67.1307C66.6479 10.1417 65.7284 10.6479 64.763 10.6018C62.8321 10.6479 61.6367 9.12941 61.6367 6.75972ZM63.1539 6.75972C63.1539 8.34718 63.9124 9.31347 65.1538 9.31347C66.3951 9.31347 67.1766 8.34718 67.1766 6.75972C67.1766 5.17225 66.3951 4.20597 65.1538 4.20597C63.9124 4.20597 63.1539 5.17225 63.1539 6.75972Z"></path>
    <path d="M74.7856 6.75978C74.7856 4.34407 76.1419 2.84863 78.3257 2.84863C80.5095 2.84863 81.8657 4.32106 81.8657 6.75978C81.8657 9.19849 80.5325 10.6709 78.3257 10.6709C76.1189 10.6709 74.7856 9.19849 74.7856 6.75978ZM80.3486 6.75978C80.3486 5.1263 79.613 4.18302 78.3257 4.18302C77.0384 4.18302 76.3028 5.1263 76.3028 6.75978C76.3028 8.39326 77.0384 9.33653 78.3257 9.33653C79.613 9.33653 80.3486 8.39326 80.3486 6.75978Z"></path>
    <path d="M83.8652 2.98667H85.2904V4.18302H85.4054C85.7732 3.35478 86.5088 2.84863 87.6581 2.84863C89.3362 2.84863 90.2557 3.86093 90.2557 5.65545V10.5329H88.7615V6.02356C88.7615 4.82721 88.2328 4.20603 87.1524 4.20603C86.072 4.20603 85.3594 4.94225 85.3594 6.11559V10.5099H83.8652V2.98667Z"></path>
    <path d="M98.6231 1.12305V3.03261H100.255V4.27497H98.6231V8.1401C98.6231 8.92233 98.9449 9.26744 99.6805 9.26744C99.8644 9.26744 100.048 9.24443 100.255 9.22142V10.4638C99.9793 10.5098 99.7264 10.5328 99.4506 10.5328C97.7955 10.5328 97.1519 9.95764 97.1519 8.50821V4.27497H95.9565V3.03261H97.1519V1.12305H98.6231Z"></path>
    <path d="M102.278 0.0646973H103.75V4.20591H103.864C104.232 3.35466 105.014 2.87152 106.163 2.87152C107.772 2.87152 108.738 3.88382 108.738 5.67834V10.5328H107.244V6.02344C107.244 4.82709 106.692 4.20591 105.634 4.20591C104.416 4.20591 103.75 4.96513 103.75 6.11547V10.5098H102.255V0.0646973H102.278Z"></path>
    <path d="M117.381 8.48529C117.036 9.81968 115.841 10.6479 114.117 10.6479C111.956 10.6479 110.646 9.17549 110.646 6.75978C110.646 4.34407 112.002 2.84863 114.117 2.84863C116.231 2.84863 117.473 4.27505 117.473 6.64475V7.15089H112.163V7.24292C112.209 8.55431 112.967 9.40556 114.163 9.40556C115.059 9.40556 115.68 9.08346 115.956 8.48529H117.381ZM112.163 6.06958H115.956C115.91 4.89623 115.197 4.114 114.117 4.114C113.036 4.114 112.255 4.89623 112.163 6.06958Z"></path>
  </symbol>
  <symbol fill="none" xmlns="http://www.w3.org/2000/svg" viewBox="0 0 38 40" id="google-play">
    <path d="M1.6922 1.14995C1.23413 1.60308 0.944824 2.32808 0.944824 3.25698V36.607C0.944824 37.5359 1.21002 38.2609 1.6922 38.7367L1.81274 38.8499L21.6784 20.1812V19.7507L1.81274 1.05933L1.6922 1.14995Z" fill="url(#paint0_linear_612_6094)"></path>
    <path d="M28.3081 26.389L21.6782 20.1585V19.728L28.3081 13.4976L28.4528 13.5882L36.3122 17.7796C38.5544 18.9804 38.5544 20.9288 36.3122 22.1296L28.4528 26.2983L28.3081 26.389Z" fill="url(#paint1_linear_612_6094)"></path>
    <path d="M28.4528 26.2985L21.6783 19.9321L1.69214 38.7368C2.43951 39.4618 3.64495 39.5524 5.01915 38.8274L28.4528 26.2985Z" fill="url(#paint2_linear_612_6094)"></path>
    <path d="M28.4528 13.5883L5.01915 1.05939C3.64495 0.334394 2.4154 0.425019 1.69214 1.15002L21.6783 19.932L28.4528 13.5883Z" fill="url(#paint3_linear_612_6094)"></path>
    <path opacity="0.2" d="M28.3082 26.1851L5.01915 38.6233C3.71728 39.3257 2.56005 39.2804 1.81268 38.646L1.69214 38.7593L1.81268 38.8726C2.56005 39.5069 3.71728 39.5522 5.01915 38.8499L28.4528 26.321L28.3082 26.1851Z" fill="#2D2929"></path>
    <path opacity="0.12" d="M1.6922 38.5101C1.23413 38.0569 0.944824 37.3319 0.944824 36.3804V36.6069C0.944824 37.5358 1.21002 38.2608 1.6922 38.7366L1.81274 38.6233L1.6922 38.5101Z" fill="#2D2929"></path>
    <path opacity="0.12" d="M36.312 21.903L28.3079 26.1851L28.4525 26.321L36.312 22.1296C37.421 21.5405 37.9996 20.7476 37.9996 19.9546C37.9032 20.6569 37.3245 21.3593 36.312 21.903Z" fill="#2D2929"></path>
    <path opacity="0.25" d="M5.01921 1.28588L36.3124 17.9835C37.325 18.5273 37.9036 19.2296 38 19.932C38 19.139 37.4455 18.346 36.3124 17.757L5.01921 1.05932C2.77709 -0.141459 0.944824 0.855416 0.944824 3.27963V3.5062C0.944824 1.08198 2.77709 0.0851036 5.01921 1.28588Z" fill="white"></path>
    <defs>
      <linearGradient id="paint0_linear_612_6094" x1="19.9249" y1="2.92337" x2="-5.32642" y2="29.7936" gradientUnits="userSpaceOnUse">
        <stop stop-color="#00A0FF"></stop>
        <stop offset="0.01" stop-color="#00A1FF"></stop>
        <stop offset="0.26" stop-color="#00BEFF"></stop>
        <stop offset="0.51" stop-color="#00D2FF"></stop>
        <stop offset="0.76" stop-color="#00DFFF"></stop>
        <stop offset="1" stop-color="#00E3FF"></stop>
      </linearGradient>
      <linearGradient id="paint1_linear_612_6094" x1="39.2294" y1="19.9501" x2="0.414289" y2="19.9501" gradientUnits="userSpaceOnUse">
        <stop stop-color="#FFE000"></stop>
        <stop offset="0.41" stop-color="#FFBD00"></stop>
        <stop offset="0.78" stop-color="#FFA500"></stop>
        <stop offset="1" stop-color="#FF9C00"></stop>
      </linearGradient>
      <linearGradient id="paint2_linear_612_6094" x1="24.7775" y1="23.4019" x2="-9.46474" y2="59.8395" gradientUnits="userSpaceOnUse">
        <stop stop-color="#FF3A44"></stop>
        <stop offset="1" stop-color="#C31162"></stop>
      </linearGradient>
      <linearGradient id="paint3_linear_612_6094" x1="-3.33876" y1="-9.94078" x2="11.952" y2="6.33015" gradientUnits="userSpaceOnUse">
        <stop stop-color="#32A071"></stop>
        <stop offset="0.07" stop-color="#2DA771"></stop>
        <stop offset="0.48" stop-color="#15CF74"></stop>
        <stop offset="0.8" stop-color="#06E775"></stop>
        <stop offset="1" stop-color="#00F076"></stop>
      </linearGradient>
    </defs>
  </symbol>
  <symbol xmlns="http://www.w3.org/2000/svg" viewBox="0 0 130 42" id="google-play-title">
    <path d="M9.9126 5.22803C9.9126 6.49678 9.52397 7.49365 8.76958 8.24131C7.90089 9.1249 6.78073 9.57803 5.40911 9.57803C2.80303 9.60068 0.699869 7.53896 0.677009 4.95615C0.677009 4.91084 0.677009 4.88818 0.677009 4.84287C0.631288 2.26006 2.71159 0.153027 5.31767 0.130371H5.43197C6.07206 0.130371 6.71214 0.266309 7.30651 0.515527C7.85516 0.74209 8.33523 1.08193 8.72386 1.53506L7.92375 2.32803C7.30652 1.60303 6.48354 1.26318 5.43197 1.26318C3.48884 1.26318 1.88861 2.80381 1.88861 4.75225V4.88818C1.82003 6.81396 3.32881 8.44521 5.27194 8.51318H5.43197C6.3921 8.53584 7.30652 8.17334 7.96947 7.49365C8.42668 6.99522 8.701 6.33818 8.74672 5.6585H5.43197V4.571H9.86688C9.88974 4.7749 9.9126 5.00146 9.9126 5.22803Z"></path>
    <path fill-rule="evenodd" clip-rule="evenodd" d="M5.31757 0.0303955L5.43187 0.0303993C6.08593 0.0303993 6.73904 0.169256 7.34485 0.423235C7.90729 0.65554 8.4004 1.00446 8.79967 1.46999L8.86024 1.54061L7.91743 2.47501L7.84751 2.39288C7.25221 1.69364 6.45899 1.36321 5.43187 1.36321C3.54185 1.36321 1.98851 2.86116 1.98851 4.75227V4.89177C1.92192 6.76187 3.38664 8.34627 5.27361 8.41321H5.43423C6.367 8.43522 7.25387 8.0834 7.89671 7.42496C8.31353 6.97005 8.57336 6.3775 8.63771 5.75852H5.33187V4.47102H9.95619L9.96616 4.55988C9.98905 4.76406 10.0125 4.99544 10.0125 5.22806C10.0125 6.51872 9.61635 7.54258 8.84033 8.31191C7.95132 9.21593 6.80495 9.67796 5.40944 9.67806C2.7488 9.70095 0.600267 7.59541 0.576915 4.95707L0.576912 4.84422C0.576917 4.84452 0.576906 4.84497 0.576912 4.84527L0.676912 4.8429H0.576912V4.84422C0.530681 2.20512 2.65733 0.0535226 5.31757 0.0303955ZM5.31801 0.230399C2.76658 0.252811 0.732181 2.31515 0.776896 4.84113L0.776927 4.8429L0.776912 4.95565C0.799514 7.48258 2.85697 9.50024 5.40814 9.47806C6.75544 9.47806 7.84996 9.03399 8.69818 8.17123L8.69909 8.17031C9.43156 7.44438 9.8125 6.47463 9.8125 5.22806C9.8125 5.03924 9.79617 4.84951 9.77715 4.67102H5.53187V5.55852H8.85358L8.8464 5.66524C8.7992 6.36682 8.51615 7.04554 8.04307 7.56128L8.04099 7.56354C7.35829 8.26348 6.41724 8.63618 5.43069 8.61321H5.26835C3.27049 8.54333 1.71897 6.86655 1.78851 4.88645V4.75227C1.78851 2.74651 3.43563 1.16321 5.43187 1.16321C6.46847 1.16321 7.29782 1.48734 7.92866 2.1823L8.58643 1.5304C8.21977 1.12446 7.77438 0.81699 7.26825 0.607985C6.68538 0.36359 6.0579 0.230399 5.43187 0.230399H5.31801Z"></path>
    <path d="M16.931 1.46709H12.7704V4.34443H16.5195V5.43193H12.7704V8.30928H16.931V9.41943H11.6045V0.356934H16.931V1.46709Z"></path>
    <path fill-rule="evenodd" clip-rule="evenodd" d="M11.5044 0.256958H17.0309V1.56711H12.8703V4.24446H16.6194V5.53196H12.8703V8.2093H17.0309V9.51946H11.5044V0.256958ZM11.7044 0.456958V9.31946H16.8309V8.4093H12.6703V5.33196H16.4194V4.44446H12.6703V1.36711H16.8309V0.456958H11.7044Z"></path>
    <path d="M21.8688 9.39678H20.7029V1.46709H18.1426V0.356934H24.4063V1.46709H21.846V9.39678H21.8688Z"></path>
    <path fill-rule="evenodd" clip-rule="evenodd" d="M18.0425 0.256958H24.5062V1.56711H21.9459V9.3968H21.8687V9.4968H20.6028V1.56711H18.0425V0.256958ZM21.7459 9.2968H20.8028V1.36711H18.2425V0.456958H24.3062V1.36711H21.7459V9.2968Z"></path>
    <path d="M28.9556 9.39678V0.356934H30.1214V9.39678H28.9556Z"></path>
    <path fill-rule="evenodd" clip-rule="evenodd" d="M28.8555 0.256958H30.2213V9.4968H28.8555V0.256958ZM29.0555 0.456958V9.2968H30.0213V0.456958H29.0555Z"></path>
    <path d="M35.3333 9.39678H34.1674V1.46709H31.6299V0.356934H37.8936V1.46709H35.3561V9.39678H35.3333Z"></path>
    <path fill-rule="evenodd" clip-rule="evenodd" d="M31.5298 0.256958H37.9935V1.56711H35.456V9.4968H34.0673V1.56711H31.5298V0.256958ZM31.7298 0.456958V1.36711H34.2673V9.2968H35.256V1.36711H37.7935V0.456958H31.7298Z"></path>
    <path d="M49.7581 8.21885C47.9064 10.054 44.9117 10.054 43.06 8.21885C42.1684 7.33525 41.6884 6.11182 41.7112 4.86572C41.6884 3.61963 42.1684 2.39619 43.06 1.5126C44.9117 -0.322559 47.9064 -0.322559 49.7352 1.5126C50.6268 2.39619 51.1068 3.59697 51.084 4.86572C51.1297 6.11182 50.6496 7.33525 49.7581 8.21885ZM43.9058 7.47119C45.2774 8.83057 47.4949 8.83057 48.8665 7.47119C49.5523 6.76885 49.9181 5.83994 49.8724 4.86572C49.8952 3.8915 49.5295 2.9626 48.8665 2.28291C47.4949 0.923535 45.2774 0.923535 43.9058 2.28291C43.22 2.98525 42.8543 3.91416 42.9 4.86572C42.8771 5.83994 43.2429 6.76885 43.9058 7.47119Z"></path>
    <path fill-rule="evenodd" clip-rule="evenodd" d="M49.6643 1.58321C47.8748 -0.212489 44.9432 -0.213118 43.1303 1.58365C42.2587 2.44745 41.7887 3.64431 41.8111 4.86391L41.8112 4.86758L41.8111 4.86758C41.7887 6.08718 42.2587 7.28405 43.1303 8.14785C44.943 9.94437 47.8749 9.94437 49.6876 8.14785C50.5592 7.284 51.0286 6.08768 50.9839 4.86941L50.9837 4.86394L50.9839 4.86395C51.0063 3.6219 50.5365 2.44761 49.6647 1.58365L49.6643 1.58321ZM49.8057 1.4418C47.9376 -0.43258 44.8799 -0.431873 42.9895 1.4416C42.0784 2.34455 41.5883 3.59379 41.6111 4.86575C41.5883 6.1377 42.0784 7.38694 42.9895 8.2899C44.8802 10.1637 47.9377 10.1637 49.8284 8.2899C50.7392 7.3872 51.2299 6.13778 51.1839 4.86481C51.2065 3.57046 50.7163 2.34437 49.8057 1.4418ZM43.8353 2.21191C45.2459 0.813902 47.5262 0.813902 48.9368 2.21191L48.938 2.2131L48.938 2.21311C49.6192 2.91148 49.9949 3.86509 49.9723 4.86458C50.0184 5.86622 49.6416 6.82046 48.938 7.54108L48.9368 7.54225L48.9368 7.54224C47.5262 8.94025 45.2459 8.94025 43.8353 7.54224L43.833 7.5399L43.833 7.53986C43.1532 6.8196 42.7773 5.86674 42.7998 4.86697C42.7538 3.88754 43.1308 2.9334 43.8342 2.21307L43.8353 2.2119L43.8353 2.21191ZM43.9767 2.35338C43.3097 3.0368 42.9554 3.93877 42.9998 4.86095L43.0001 4.8681L42.9998 4.86809C42.9776 5.8149 43.3328 6.71793 43.9773 7.40136C45.3098 8.72074 47.4632 8.72054 48.7955 7.40077C49.4622 6.71761 49.8168 5.81568 49.7724 4.87043L49.7721 4.8634L49.7723 4.8634C49.7945 3.91603 49.439 3.0135 48.7954 2.35337C47.4629 1.03341 45.3092 1.03341 43.9767 2.35338Z"></path>
    <path d="M52.73 9.39678V0.356934H54.1473L58.5822 7.40303H58.628L58.5822 5.6585V0.356934H59.7481V9.39678H58.5136L53.873 2.01084H53.8273L53.873 3.75537V9.39678H52.73Z"></path>
    <path fill-rule="evenodd" clip-rule="evenodd" d="M52.6299 0.256958H54.2024L58.5203 7.11713L58.4821 5.65852L58.4821 0.256958H59.848V9.4968H58.4583L53.9347 2.29721L53.9729 3.7554L53.9729 9.4968H52.6299V0.256958ZM52.8299 0.456958V9.2968H53.7729V3.75671L53.7245 1.91086H53.9282L58.5688 9.2968H59.648V0.456958H58.6821V5.65721L58.7305 7.50305H58.5269L54.092 0.456958H52.8299Z"></path>
    <path d="M41.4141 22.5829C37.8479 22.5829 34.9218 25.279 34.9218 28.9946C34.9218 32.7103 37.8479 35.4064 41.4141 35.4064C44.9803 35.4064 47.9064 32.6876 47.9064 28.9946C47.9064 25.3017 45.0032 22.5829 41.4141 22.5829ZM41.4141 32.8915C39.4481 32.8915 37.7564 31.2829 37.7564 29.0173C37.7564 26.7517 39.4481 25.1431 41.4141 25.1431C43.3801 25.1431 45.0718 26.729 45.0718 29.0173C45.0718 31.3056 43.3801 32.8689 41.4141 32.8915ZM27.2407 22.5829C23.6745 22.5829 20.7483 25.279 20.7483 28.9946C20.7483 32.7103 23.6745 35.4064 27.2407 35.4064C30.8069 35.4064 33.733 32.6876 33.733 28.9946C33.733 25.3017 30.8298 22.5829 27.2407 22.5829ZM27.2407 32.8915C25.2747 32.8915 23.583 31.2829 23.583 29.0173C23.583 26.7517 25.2747 25.1431 27.2407 25.1431C29.2067 25.1431 30.8983 26.729 30.8983 29.0173C30.8983 31.3056 29.2067 32.8689 27.2407 32.8915ZM10.3926 24.554V27.2728C10.3926 27.2728 17.1364 25.7548 16.9535 27.2728C16.7706 28.7907 16.2448 29.9236 15.4676 30.6939C14.5075 31.6454 13.0215 32.6876 10.3926 32.6876C6.3463 32.6876 3.19157 29.4478 3.19157 25.4603C3.19157 21.4728 6.3463 18.2329 10.3926 18.2329C12.2443 18.2103 14.0274 18.9126 15.3533 20.1814L17.2964 18.2556C15.4676 16.4657 12.9758 15.4689 10.4154 15.5142C4.88324 15.5142 0.219727 19.9775 0.219727 25.4603C0.219727 30.9431 4.88324 35.429 10.4154 35.429C13.4102 35.429 15.6505 34.4548 17.4336 32.6423C19.2396 30.8525 19.8111 28.315 19.8111 26.2759C19.8111 25.7095 19.7653 25.1431 19.6739 24.5767L10.3926 24.554ZM79.3166 26.661C78.7908 25.2337 77.1448 22.5829 73.7844 22.5829C70.4239 22.5829 67.7035 25.1884 67.7035 28.9946C67.7035 32.597 70.4468 35.4064 74.1273 35.4064C76.299 35.429 78.3107 34.3415 79.5223 32.5743L77.3049 31.1243C76.5733 32.1892 75.5675 32.8915 74.1273 32.8915C72.6871 32.8915 71.6584 32.2345 70.9954 30.9431L79.6366 27.4087L79.3166 26.661ZM70.4925 28.7907C70.4239 26.3212 72.4356 25.0525 73.8758 25.0525C74.996 25.0525 75.9561 25.6189 76.2762 26.4118L70.4925 28.7907ZM63.4743 35.0212H66.3319V16.1712H63.4743V35.0212ZM58.8108 24.0103H58.7194C58.0793 23.2626 56.8677 22.5829 55.3132 22.5829C52.067 22.5829 49.118 25.3923 49.118 29.0173C49.118 32.6423 52.0899 35.4064 55.3132 35.4064C56.8677 35.4064 58.0793 34.7267 58.7194 33.9564H58.8108V34.8853C58.8108 37.3321 57.4849 38.6462 55.3589 38.6462C53.6215 38.6462 52.5471 37.4001 52.0899 36.3579L49.621 37.3775C50.5811 39.6884 52.8443 41.1837 55.3589 41.161C58.6965 41.161 61.5084 39.2126 61.5084 34.4775V22.9681H58.8108V24.0103ZM55.5418 32.8689C53.5758 32.8689 51.9299 31.2376 51.9299 28.9946C51.9299 26.7517 53.5758 25.0978 55.5418 25.0978C57.5078 25.0978 58.9937 26.7517 58.9937 29.0173C58.9937 31.2829 57.4849 32.8689 55.5418 32.8689ZM92.6442 16.1712H85.8318V35.0212H88.6665V27.9071H92.6213C95.776 27.9071 98.8622 25.6415 98.8622 22.0618C98.8622 18.4821 95.776 16.1712 92.6442 16.1712ZM92.7128 25.2564H88.6665V18.7993H92.7128C94.5187 18.754 96.0046 20.1587 96.0504 21.9486C96.0961 23.7384 94.6787 25.2111 92.8728 25.2564C92.8271 25.2564 92.7585 25.2564 92.7128 25.2564ZM110.247 22.5376C108.189 22.5376 106.063 23.4439 105.172 25.415L107.686 26.4571C108.235 25.415 109.218 25.0751 110.27 25.0751C111.733 25.0751 113.219 25.9587 113.241 27.4993V27.7032C112.327 27.2275 111.298 26.9782 110.27 26.9782C107.549 26.9782 104.783 28.4509 104.783 31.215C104.783 33.7298 107 35.3611 109.515 35.3611C111.413 35.3611 112.464 34.5001 113.127 33.5259H113.218V34.9759H115.962V27.7712C116.03 24.4181 113.493 22.5603 110.247 22.5376ZM109.904 32.8689C108.966 32.8689 107.686 32.4157 107.686 31.2603C107.686 29.8103 109.309 29.2439 110.704 29.2439C111.618 29.2212 112.51 29.4478 113.287 29.8782C113.081 31.5775 111.618 32.8689 109.904 32.8689ZM125.997 22.9681L122.751 31.147H122.66L119.276 22.9681H116.213L121.288 34.3868L118.408 40.7306H121.38L129.175 22.9681H125.997ZM100.44 35.0212H103.274V16.1712H100.44V35.0212Z"></path>
  </symbol>  <symbol xmlns="http://www.w3.org/2000/svg" viewBox="0 0 32 32" id="facebook">
    <g clip-path="url(#clip0_1_2)">
      <path fill-rule="evenodd" clip-rule="evenodd" d="M4 16.067C4 22.033 8.333 26.994 14 28V19.333H11V16H14V13.333C14 10.333 15.933 8.667 18.667 8.667C19.533 8.667 20.467 8.8 21.333 8.933V12H19.8C18.333 12 18 12.733 18 13.667V16H21.2L20.667 19.333H18V28C23.667 26.994 28 22.034 28 16.067C28 9.43 22.6 4 16 4C9.4 4 4 9.43 4 16.067Z"></path>
    </g>
    <defs>
      <clipPath id="clip0_1_2">
        <rect width="24" height="24" transform="translate(4 4)"></rect>
      </clipPath>
    </defs>
  </symbol>
  <symbol xmlns="http://www.w3.org/2000/svg" viewBox="0 0 32 32" id="instagram">
    <path d="M27.9293 11.0733C27.9159 10.0635 27.7268 9.0637 27.3706 8.11867C27.0618 7.32154 26.59 6.5976 25.9855 5.99311C25.381 5.38862 24.6571 4.91687 23.86 4.608C22.9271 4.25781 21.9415 4.06846 20.9453 4.048C19.6626 3.99067 19.256 3.97467 16 3.97467C12.744 3.97467 12.3266 3.97467 11.0533 4.048C10.0575 4.06861 9.07244 4.25796 8.13997 4.608C7.34272 4.91666 6.61867 5.38833 6.01415 5.99285C5.40963 6.59737 4.93796 7.32141 4.6293 8.11867C4.27841 9.05085 4.08947 10.0362 4.07064 11.032C4.01331 12.316 3.99597 12.7227 3.99597 15.9787C3.99597 19.2347 3.99597 19.6507 4.07064 20.9253C4.09064 21.9227 4.27864 22.9067 4.6293 23.8413C4.93848 24.6384 5.4105 25.3621 6.01522 25.9664C6.61994 26.5706 7.34406 27.0421 8.1413 27.3507C9.07122 27.7149 10.0565 27.9178 11.0546 27.9507C12.3386 28.008 12.7453 28.0253 16.0013 28.0253C19.2573 28.0253 19.6746 28.0253 20.948 27.9507C21.9442 27.9311 22.9298 27.7421 23.8626 27.392C24.6596 27.0828 25.3833 26.6109 25.9878 26.0065C26.5922 25.402 27.0641 24.6783 27.3733 23.8813C27.724 22.948 27.912 21.964 27.932 20.9653C27.9893 19.6827 28.0066 19.276 28.0066 16.0187C28.004 12.7627 28.004 12.3493 27.9293 11.0733ZM15.992 22.136C12.5866 22.136 9.82797 19.3773 9.82797 15.972C9.82797 12.5667 12.5866 9.808 15.992 9.808C17.6268 9.808 19.1946 10.4574 20.3506 11.6134C21.5066 12.7694 22.156 14.3372 22.156 15.972C22.156 17.6068 21.5066 19.1746 20.3506 20.3306C19.1946 21.4866 17.6268 22.136 15.992 22.136ZM22.4013 11.0173C22.2125 11.0175 22.0255 10.9805 21.8511 10.9083C21.6766 10.8361 21.5181 10.7302 21.3846 10.5967C21.2511 10.4632 21.1452 10.3047 21.073 10.1303C21.0009 9.95579 20.9638 9.76881 20.964 9.58C20.964 9.39134 21.0011 9.20452 21.0733 9.03022C21.1455 8.85591 21.2514 8.69753 21.3848 8.56413C21.5182 8.43072 21.6765 8.3249 21.8509 8.2527C22.0252 8.1805 22.212 8.14334 22.4006 8.14334C22.5893 8.14334 22.7761 8.1805 22.9504 8.2527C23.1247 8.3249 23.2831 8.43072 23.4165 8.56413C23.5499 8.69753 23.6557 8.85591 23.7279 9.03022C23.8001 9.20452 23.8373 9.39134 23.8373 9.58C23.8373 10.3747 23.1946 11.0173 22.4013 11.0173Z"></path>
    <path d="M15.992 19.976C18.2034 19.976 19.996 18.1833 19.996 15.972C19.996 13.7606 18.2034 11.968 15.992 11.968C13.7807 11.968 11.988 13.7606 11.988 15.972C11.988 18.1833 13.7807 19.976 15.992 19.976Z"></path>
  </symbol>
  <symbol xmlns="http://www.w3.org/2000/svg" viewBox="0 0 32 32" id="youtube">
    <path d="M29.4156 9.25313C29.2562 8.65949 28.9437 8.11814 28.5094 7.68324C28.075 7.24834 27.5341 6.93514 26.9406 6.775C24.7562 6.1875 16 6.1875 16 6.1875C16 6.1875 7.24375 6.1875 5.05937 6.77187C4.46569 6.9315 3.92445 7.24452 3.49002 7.6795C3.05558 8.11448 2.74325 8.65611 2.58437 9.25C2 11.4375 2 16 2 16C2 16 2 20.5625 2.58437 22.7469C2.90625 23.9531 3.85625 24.9031 5.05937 25.225C7.24375 25.8125 16 25.8125 16 25.8125C16 25.8125 24.7562 25.8125 26.9406 25.225C28.1469 24.9031 29.0938 23.9531 29.4156 22.7469C30 20.5625 30 16 30 16C30 16 30 11.4375 29.4156 9.25313ZM13.2188 20.1875V11.8125L20.4688 15.9688L13.2188 20.1875Z"></path>
  </symbol>
  <symbol xmlns="http://www.w3.org/2000/svg" viewBox="0 0 16 16" id="plus">
    <path d="M8 0C8.55228 0 9 0.447715 9 1V7H15C15.5523 7 16 7.44772 16 8C16 8.55229 15.5523 9 15 9H9V15C9 15.5523 8.55228 16 8 16C7.44772 16 7 15.5523 7 15V9H1C0.447715 9 0 8.55229 0 8C0 7.44772 0.447715 7 1 7H7V1C7 0.447715 7.44772 0 8 0Z"></path>
  </symbol>
  <symbol xmlns="http://www.w3.org/2000/svg" viewBox="0 0 12 6" id="arrow">
    <path d="M6 6L0 0H12L6 6Z"></path>
  </symbol>
  <symbol xmlns="http://www.w3.org/2000/svg" viewBox="0 0 11 20" id="arrow-slider">
    <path d="M10.5973 0.418419C11.1342 0.976311 11.1342 1.88083 10.5973 2.43872L3.31954 10L10.5973 17.5613C11.1342 18.1192 11.1342 19.0237 10.5973 19.5816C10.0603 20.1395 9.1897 20.1395 8.65273 19.5816L0.402729 11.0102C-0.134242 10.4523 -0.134242 9.54774 0.402729 8.98985L8.65273 0.418419C9.1897 -0.139473 10.0603 -0.139473 10.5973 0.418419Z"></path>
  </symbol>  <symbol xmlns="http://www.w3.org/2000/svg" viewBox="0 0 25 24" id="dors">
    <g clip-path="url(#clip0_1_2)">
      <path d="M10.9766 1.01718C10.5266 1.11093 10.0437 1.32187 9.65937 1.58437C9.41562 1.75312 8.39375 2.79843 5.45468 5.90625C3.31718 8.16093 1.54062 10.0734 1.50312 10.1578C1.44687 10.2891 1.4375 11.1047 1.44218 15.6656C1.44218 20.5734 1.45156 21.0516 1.52187 21.3328C1.7375 22.1437 2.46875 22.8375 3.30312 23.0109C3.65937 23.0859 21.3453 23.0859 21.6969 23.0109C22.5875 22.8234 23.3281 22.0828 23.5109 21.1969C23.5859 20.8453 23.5859 3.15468 23.5109 2.80312C23.3281 1.92656 22.5734 1.17187 21.6969 0.989059C21.5234 0.951559 19.9109 0.937496 16.3766 0.942184C12.0594 0.946871 11.2578 0.956246 10.9766 1.01718ZM21.7344 2.175C21.9641 2.29687 22.1937 2.52187 22.3109 2.74218C22.4141 2.92968 22.4141 2.94375 22.4281 6.38437L22.4375 9.84375H12.8937C6.90781 9.84375 3.35937 9.825 3.36875 9.80156C3.40156 9.69843 10.0766 2.67656 10.2687 2.53593C10.5266 2.35312 10.85 2.20781 11.1641 2.12812C11.3469 2.08125 12.5609 2.07187 16.4844 2.07656C21.3453 2.08593 21.5797 2.09062 21.7344 2.175ZM20.3844 12.7406C20.5156 12.8719 20.5391 12.9234 20.5391 13.125C20.5391 13.3266 20.5156 13.3781 20.3844 13.5094L20.2344 13.6641H18.5H16.7656L16.6156 13.5094C16.4844 13.3781 16.4609 13.3266 16.4609 13.1297C16.4609 12.8859 16.5828 12.6937 16.7891 12.6047C16.8406 12.5859 17.6375 12.5719 18.5562 12.5766L20.2344 12.5859L20.3844 12.7406Z"></path>
    </g>
    <defs>
      <clipPath id="clip0_1_2">
        <rect width="25" height="24"></rect>
      </clipPath>
    </defs>
  </symbol>
  <symbol xmlns="http://www.w3.org/2000/svg" viewBox="0 0 25 24" id="fuel">
    <g clip-path="url(#clip0_1_2)">
      <path d="M17.0938 0.881249C16.7188 1.35937 16.0906 2.16562 15.6969 2.66719C14.4922 4.20937 14 5.025 13.7609 5.88281C13.6109 6.40781 13.6109 7.21875 13.7609 7.77656C14.2578 9.66562 15.8703 10.9219 17.7969 10.9219C18.8656 10.9219 19.8125 10.5516 20.5953 9.825C21.1672 9.29531 21.5797 8.62969 21.7906 7.88906C21.8844 7.57969 21.8984 7.41562 21.8984 6.79687C21.8938 6.13594 21.8844 6.0375 21.7672 5.69531C21.4672 4.79531 21.0219 4.12031 19.2266 1.82812C18.4859 0.885936 17.8578 0.0937485 17.8297 0.0656235C17.7875 0.023436 17.6094 0.220311 17.0938 0.881249Z"></path>
      <path d="M8.375 6.26719C6.86562 8.18907 5.44531 10.0313 5.22031 10.3547C4.16094 11.8594 3.57969 13.0078 3.29375 14.1375C3.12969 14.7938 3.07812 15.2391 3.07812 16.0031C3.07812 19.2281 5.09844 22.1953 8.11719 23.4047C10.3391 24.2953 12.7062 24.1781 14.8484 23.0813C17.6047 21.6656 19.3203 18.7219 19.1891 15.6328C19.1469 14.625 18.9172 13.7016 18.4766 12.7688L18.2797 12.3422L17.5812 12.3141C16.7797 12.2859 16.2594 12.1734 15.5516 11.8688C14.6844 11.4938 13.7562 10.7203 13.2125 9.92344C12.4812 8.85938 12.125 7.5 12.2609 6.3C12.3172 5.82657 12.4625 5.22188 12.6078 4.87969L12.6781 4.72032L11.9937 3.84844C11.6234 3.37032 11.2719 2.92969 11.2156 2.87344L11.1172 2.77032L8.375 6.26719Z"></path>
    </g>
    <defs>
      <clipPath id="clip0_1_2">
        <rect width="25" height="24"></rect>
      </clipPath>
    </defs>
  </symbol>
  <symbol xmlns="http://www.w3.org/2000/svg" viewBox="0 0 25 24" id="transmission">
    <g clip-path="url(#clip0_1_2)">
      <g clip-path="url(#clip1_1_2)">
        <path d="M9.4873 0.0843756C9.13086 0.206251 8.86719 0.389063 8.67188 0.646876C8.35449 1.06406 8.34473 1.14375 8.35938 3.09844C8.37402 4.82344 8.37402 4.85625 8.48633 5.06719C8.75 5.57813 9.25781 5.925 9.81445 5.98125C10.1611 6.01406 10.332 6.07969 10.415 6.20625C10.4541 6.2625 10.6494 6.99844 10.8447 7.84219L11.1963 9.375H12.5H13.8037L14.1553 7.84219C14.3506 6.99844 14.5459 6.2625 14.585 6.20625C14.668 6.07969 14.8389 6.01406 15.1758 5.98125C15.7227 5.92969 16.2549 5.56875 16.5039 5.08594L16.626 4.85156V3C16.626 1.1625 16.626 1.14844 16.5137 0.932813C16.333 0.581251 16.0889 0.346876 15.7324 0.178126L15.4053 0.0234381L12.5732 0.0140631C9.95117 0.00468806 9.72168 0.00937556 9.4873 0.0843756Z"></path>
        <path d="M11.2402 12.1734C11.2549 13.6078 11.2646 13.65 11.5771 13.9922C12.0605 14.5172 12.9395 14.5172 13.4229 13.9922C13.7354 13.65 13.7451 13.6078 13.7598 12.1734L13.7744 10.875H12.5H11.2256L11.2402 12.1734Z"></path>
        <path d="M6.81152 12.0703C5.84472 12.2719 4.96582 12.9234 4.5459 13.7391C4.16015 14.4937 4.1748 14.3391 4.1748 18C4.1748 21.6656 4.16015 21.5016 4.55078 22.2656C4.84375 22.8422 5.37109 23.3437 6.00586 23.6437C6.79687 24.0141 6.48437 24 12.4805 24C16.0937 24 17.8955 23.9859 18.0957 23.9484C19.0869 23.775 20.0244 23.1 20.459 22.2469C20.8398 21.5062 20.8252 21.6562 20.8252 18C20.8252 14.3437 20.8398 14.4937 20.459 13.7531C20.0928 13.0312 19.375 12.4406 18.5303 12.1594C18.1494 12.0328 18.1055 12.0281 16.8994 12.0094L15.6592 11.9906L15.7764 12.1734C15.835 12.2719 15.9131 12.3937 15.9473 12.4453C16.1182 12.7031 16.3037 13.3641 16.8262 15.6141C17.4316 18.2016 17.4951 18.6234 17.3828 19.1391C17.1826 20.0672 16.3184 20.8969 15.3418 21.0891C14.9853 21.1594 10.0146 21.1594 9.6582 21.0891C8.68652 20.8969 7.81738 20.0625 7.61718 19.1391C7.50488 18.6234 7.56836 18.2016 8.17382 15.6141C8.80371 12.9187 8.87695 12.675 9.25293 12.1266L9.33593 12L8.22265 12.0047C7.49023 12.0047 7.00195 12.0281 6.81152 12.0703Z"></path>
        <path d="M9.58008 16.4672C9.33105 17.5312 9.13086 18.5062 9.13086 18.6328C9.13086 19.0594 9.43848 19.4672 9.8584 19.5891C10.1221 19.6641 14.8779 19.6641 15.1416 19.5891C15.5566 19.4672 15.8691 19.0594 15.8691 18.6328C15.8691 18.5062 15.6641 17.5312 15.4199 16.4625C14.9951 14.6437 14.9609 14.5312 14.8926 14.6297C14.5996 15.0516 14.1406 15.4406 13.6963 15.6375C12.4854 16.1766 11.0205 15.825 10.2539 14.8172C10.1318 14.6578 10.0342 14.5312 10.0342 14.5312C10.0293 14.5312 9.8291 15.4031 9.58008 16.4672Z"></path>
      </g>
    </g>
    <defs>
      <clipPath id="clip0_1_2">
        <rect width="25" height="24"></rect>
      </clipPath>
      <clipPath id="clip1_1_2">
        <rect width="25" height="24"></rect>
      </clipPath>
    </defs>
  </symbol>
  <symbol xmlns="http://www.w3.org/2000/svg" viewBox="0 0 26 24" id="user">
    <path d="M12.3652 0.0281096C10.8125 0.220297 9.56737 0.782798 8.49315 1.77655C6.11522 3.97498 5.86131 7.54217 7.90233 10.0594C9.86033 12.4781 13.4443 13.1625 16.1982 11.639C18.6299 10.2937 19.8847 7.67811 19.3672 5.04842C18.8838 2.61561 16.8428 0.637485 14.3037 0.135922C13.8203 0.0421724 12.751 -0.0187654 12.3652 0.0281096Z"></path>
    <path d="M7.77539 12.9843C5.6123 13.35 3.62988 14.639 2.39453 16.4812C2.13574 16.8703 1.81836 17.5312 1.81836 17.6859C1.81836 17.9953 2.74609 19.2515 3.625 20.1281C5.76855 22.2703 8.41504 23.5453 11.4619 23.9109C12.0967 23.9906 13.8643 23.9859 14.4893 23.9109C16.96 23.6062 19.1572 22.7203 21.0566 21.2625C21.6475 20.8125 22.8047 19.664 23.2637 19.0781C23.7764 18.4172 24.1816 17.789 24.1816 17.6437C24.1816 17.5031 23.9082 16.9265 23.6689 16.5703C22.834 15.3187 21.6719 14.2968 20.3682 13.6734C19.416 13.2187 18.2295 12.9047 17.6289 12.9468C17.4238 12.9609 17.2871 13.0078 17.0918 13.125C16.3887 13.5515 16.1641 13.6687 15.7734 13.8328C14.8018 14.2406 13.8105 14.4187 12.7559 14.3765C11.4082 14.325 10.2754 13.9781 9.14746 13.2656C8.90332 13.1109 8.64453 12.975 8.57129 12.9562C8.49316 12.9422 8.40039 12.9234 8.36133 12.914C8.32227 12.9047 8.05859 12.9375 7.77539 12.9843Z"></path>
  </symbol>
</svg>